<svg xmlns="http://www.w3.org/2000/svg" xmlns:xlink="http://www.w3.org/1999/xlink" viewBox="0 0 4065.6 2464"><defs><style>.cls-1{isolation:isolate;}.cls-10,.cls-11,.cls-12,.cls-14,.cls-2,.cls-3,.cls-5,.cls-6,.cls-7,.cls-8,.cls-9{fill:#113a39;}.cls-10,.cls-11,.cls-12,.cls-13,.cls-2,.cls-23,.cls-24,.cls-25,.cls-26,.cls-27,.cls-29,.cls-3,.cls-30,.cls-31,.cls-32,.cls-33,.cls-34,.cls-35,.cls-36,.cls-37,.cls-38,.cls-4,.cls-8,.cls-9{mix-blend-mode:screen;}.cls-2,.cls-23,.cls-6{opacity:0.6;}.cls-18,.cls-20,.cls-26,.cls-3{opacity:0.3;}.cls-22,.cls-5,.cls-9{opacity:0.8;}.cls-7,.cls-8{opacity:0.4;}.cls-11,.cls-13,.cls-24{opacity:0.2;}.cls-12,.cls-25,.cls-27{opacity:0.5;}.cls-15,.cls-16,.cls-17,.cls-18,.cls-19,.cls-20,.cls-21{mix-blend-mode:color-dodge;}.cls-15{opacity:0.7;fill:url(#radial-gradient);}.cls-16,.cls-21{opacity:0.15;}.cls-16{fill:url(#radial-gradient-2);}.cls-17,.cls-19{opacity:0.1;}.cls-17{fill:url(#radial-gradient-3);}.cls-18{fill:url(#radial-gradient-4);}.cls-19{fill:url(#radial-gradient-5);}.cls-20{fill:url(#radial-gradient-6);}.cls-21{fill:url(#radial-gradient-7);}.cls-22,.cls-23,.cls-24,.cls-25,.cls-26,.cls-28{fill:#27043d;}.cls-29{fill:url(#radial-gradient-8);}.cls-30{fill:url(#radial-gradient-9);}.cls-31{fill:url(#radial-gradient-10);}.cls-32{fill:url(#radial-gradient-11);}.cls-33{fill:url(#radial-gradient-12);}.cls-34{fill:url(#radial-gradient-13);}.cls-35{fill:url(#radial-gradient-14);}.cls-36{fill:url(#radial-gradient-15);}.cls-37{fill:url(#radial-gradient-16);}.cls-38{fill:url(#radial-gradient-17);}</style><radialGradient id="radial-gradient" cx="5527.15" cy="1133.11" r="196.22" gradientTransform="matrix(2.76, 0, 0, 0.9, -13009.69, 903.97)" gradientUnits="userSpaceOnUse"><stop offset="0" stop-color="#43e8e1"/><stop offset="0.14" stop-color="#34b5b0" stop-opacity="0.78"/><stop offset="0.3" stop-color="#257f7b" stop-opacity="0.55"/><stop offset="0.46" stop-color="#17514f" stop-opacity="0.35"/><stop offset="0.62" stop-color="#0d2e2d" stop-opacity="0.2"/><stop offset="0.76" stop-color="#061514" stop-opacity="0.09"/><stop offset="0.89" stop-color="#020505" stop-opacity="0.02"/><stop offset="1" stop-opacity="0"/></radialGradient><radialGradient id="radial-gradient-2" cx="7693.53" cy="-3948.85" r="196.22" gradientTransform="matrix(1.66, 0, 0, 0.59, -10023.05, 4479.75)" xlink:href="#radial-gradient"/><radialGradient id="radial-gradient-3" cx="9456.75" cy="11689.63" r="196.21" gradientTransform="matrix(-1.66, 0, 0, -0.59, 19228.33, 8705.66)" xlink:href="#radial-gradient"/><radialGradient id="radial-gradient-4" cx="5612.36" cy="13730.15" r="196.23" gradientTransform="matrix(-1.66, 0, 0, -0.59, 12334.38, 9570.45)" xlink:href="#radial-gradient"/><radialGradient id="radial-gradient-5" cx="5715.18" cy="303.39" r="196.22" gradientTransform="matrix(1.97, 0, 0, 0.9, -7826.54, 1301.09)" xlink:href="#radial-gradient"/><radialGradient id="radial-gradient-6" cx="4775.04" cy="4579.13" r="196.22" gradientTransform="matrix(0, 1.97, -0.9, 0, 7536.36, -7294.98)" xlink:href="#radial-gradient"/><radialGradient id="radial-gradient-7" cx="4197.88" cy="5169.59" r="196.22" gradientTransform="matrix(0, 1.97, -0.9, 0, 7158.92, -6711.01)" xlink:href="#radial-gradient"/><radialGradient id="radial-gradient-8" cx="3396.93" cy="305.3" r="30.8" gradientUnits="userSpaceOnUse"><stop offset="0.09" stop-color="#1bb0d4"/><stop offset="0.1" stop-color="#1b89b4"/><stop offset="0.13" stop-color="#1b2b69"/><stop offset="0.16" stop-color="#172458" stop-opacity="0.83"/><stop offset="0.22" stop-color="#10193d" stop-opacity="0.58"/><stop offset="0.3" stop-color="#0a1026" stop-opacity="0.36"/><stop offset="0.38" stop-color="#050915" stop-opacity="0.2"/><stop offset="0.49" stop-color="#020409" stop-opacity="0.08"/><stop offset="0.63" stop-color="#000102" stop-opacity="0.02"/><stop offset="1" stop-opacity="0"/></radialGradient><radialGradient id="radial-gradient-9" cx="3137.36" cy="377.9" r="61.6" xlink:href="#radial-gradient-8"/><radialGradient id="radial-gradient-10" cx="3489.51" cy="609.93" r="58.11" gradientTransform="translate(18.33 -96.9) rotate(1.6)" xlink:href="#radial-gradient-8"/><radialGradient id="radial-gradient-11" cx="3285.2" cy="866.6" r="36.96" xlink:href="#radial-gradient-8"/><radialGradient id="radial-gradient-12" cx="2583.81" cy="235.49" r="30.8" xlink:href="#radial-gradient-8"/><radialGradient id="radial-gradient-13" cx="3005.95" cy="121.24" r="21.56" xlink:href="#radial-gradient-8"/><radialGradient id="radial-gradient-14" cx="3384.79" cy="1111.97" r="21.56" xlink:href="#radial-gradient-8"/><radialGradient id="radial-gradient-15" cx="2477.04" cy="642.05" r="61.6" xlink:href="#radial-gradient-8"/><radialGradient id="radial-gradient-16" cx="2386.69" cy="1003.44" r="36.96" gradientTransform="translate(2969.95 -1519.06) rotate(80.22)" xlink:href="#radial-gradient-8"/><radialGradient id="radial-gradient-17" cx="2229.79" cy="523.69" r="30.8" xlink:href="#radial-gradient-8"/></defs><g class="cls-1"><g id="_Layer_" data-name="&lt;Layer&gt;"><path class="cls-2" d="M2916.47,2354.13c-232.68,0-451.75-52.5-616.86-147.83-165.59-95.6-256.77-222.64-256.77-357.72,0-133.89,89.83-259.48,252.94-353.66,162.64-93.9,379.2-145.61,609.81-145.61,232.68,0,451.75,52.5,616.87,147.83,165.58,95.59,256.77,222.63,256.77,357.72,0,133.89-89.83,259.48-252.94,353.65C3363.65,2302.42,3147.07,2354.13,2916.47,2354.13Zm-10.88-999.34c-229.66,0-445.25,51.45-607.07,144.88-161.34,93.15-250.21,217.06-250.21,348.91,0,133,90.23,258.4,254,353,164.29,94.85,382.39,147.09,614.12,147.09,229.66,0,445.26-51.45,607.08-144.88,161.34-93.15,250.2-217.06,250.2-348.91,0-133-90.22-258.4-254-353C3355.42,1407,3137.32,1354.79,2905.59,1354.79Z"/><path class="cls-3" d="M2916.24,2336.19c-223.54,0-434-50.46-592.76-142.09-159.65-92.17-247.57-214.84-247.57-345.39,0-129.41,86.62-250.69,243.9-341.5,156.34-90.26,364.45-140,586-140,223.54,0,434,50.46,592.76,142.09,159.65,92.18,247.58,214.84,247.58,345.4,0,129.41-86.62,250.69-243.9,341.49C3345.91,2286.48,3137.8,2336.19,2916.24,2336.19Zm-10.42-958c-219.66,0-425.83,49.19-580.53,138.5-153.75,88.77-238.43,206.68-238.43,332,0,126.48,86,245.76,242.1,335.9,157.07,90.68,365.64,140.62,587.28,140.62,219.67,0,425.84-49.18,580.54-138.5,153.74-88.77,238.42-206.67,238.42-332,0-126.48-86-245.77-242.1-335.91C3336,1428.14,3127.47,1378.2,2905.82,1378.2Z"/><g class="cls-4"><path class="cls-5" d="M2595.49,2033.9c-175.37-101.25-176.25-264.89-2-365.5a473.13,473.13,0,0,1,54.47-26.75l-16.79-13.82a500.87,500.87,0,0,0-58.32,28.59c-185.33,107-184.39,281.65,2.11,389.32,38.94,22.48,83,40.23,129.93,53.37l12.18-15.16C2673.2,2071.61,2632,2055,2595.49,2033.9Z"/><path class="cls-6" d="M3356.15,1826.1l28.91-1.41c-10.78-59.86-55.37-118.14-133.62-164.48l-20.62,11.91C3304.12,1715.58,3345.93,1770.1,3356.15,1826.1Z"/><path class="cls-5" d="M3221.67,1666.85l20.62-11.91c-165-92.65-417.26-103.19-600.55-31.34l16.8,13.82C2830.57,1570,3066.62,1579.93,3221.67,1666.85Z"/><path class="cls-7" d="M3386.14,1832.11l-28.89,1.41c9.57,72.34-33.2,146.39-128.69,201.52-55.86,32.26-123,54.06-194.11,65.54l7.59,16.17c76-12.19,147.71-35.4,207.27-69.79C3350.94,1988.28,3396.42,1909.27,3386.14,1832.11Z"/><path class="cls-6" d="M2728.78,2087.13l-12.18,15.15c98.77,25.76,209.47,31.24,313,16.38L3022,2102.5C2925,2116.42,2821.37,2111.28,2728.78,2087.13Z"/></g><path class="cls-8" d="M2902.66,1534.25c-265.46,1.37-485.55,111.91-532.26,257.67l50.4,5.22c42.56-131.92,241.74-231.94,482-233.35Zm-485.66,257-39.2-4.06c50.7-141.46,266.88-244.65,519.41-247.41l.1,18.59C2663.71,1561.21,2463.36,1658.43,2417,1791.24Z"/><path class="cls-2" d="M2915.45,1534.26l.16,29.54c117.14,1,224.82,25.43,309.56,65.5l32.76-22.56C3164.26,1562.33,3045.1,1535.32,2915.45,1534.26Zm309.2,88.74c-87.24-40.67-192-63-303.59-64.61l-.1-18.58c118,1.66,233.1,25.64,326,67.86Z"/><path class="cls-9" d="M3267.68,1611.55l-32.74,22.55c106.55,53.05,174.46,131.34,174.93,218.48.28,51.11-22.73,99.06-63.11,140.64l44.36,14.84c44.72-45.92,70.22-98.91,69.91-155.38C3460.51,1756.46,3385.44,1670,3267.68,1611.55Zm121.9,390.22-32.95-11c38.71-42.3,59-89.92,58.72-138.19-.45-83.75-62.17-163.26-169.73-219.16l22.5-15.49c118.68,59.76,187,145.22,187.43,234.81C3455.83,1904.68,3433,1956.16,3389.58,2001.77Z"/><path class="cls-10" d="M3076.86,2123.83a829.18,829.18,0,0,1-162.65,15.84h-1.57c-275-.49-499.5-130.08-500.36-288.88a169.63,169.63,0,0,1,6.31-46.37l-50.4-5.22a187,187,0,0,0-7.07,51.5c1,175.08,248.43,318,551.68,318.51h1.73a914.05,914.05,0,0,0,180-17.58Zm-164.05,39.89c-300.25-.54-545.28-141-546.21-313.06a181.71,181.71,0,0,1,5.68-45.54l39.41,4.08a174.61,174.61,0,0,0-4.89,41.61c.88,161.79,227.79,293.83,505.83,294.33h1.58a835.59,835.59,0,0,0,160-15.22l11.34,17.86a911.76,911.76,0,0,1-171.06,15.93Z"/><path class="cls-2" d="M3340.41,1999.61c-57.1,55.41-145.68,98.71-251.54,121.73l17.65,27.79c117.18-25.39,215.2-73.32,278.26-134.68ZM3097.68,2125c101-23.09,187.35-65.19,244.14-119.13l32.56,10.89c-62.15,57.35-155.81,101.95-265.29,126.2Z"/><path class="cls-11" d="M3127.39,1500.93l47.07-86.08c-11.79-2.4-23.41-5.12-35.35-7.19l-48.87,85.89C3102.77,1495.67,3115.05,1498.35,3127.39,1500.93Zm-582,41.64-93.14-73c-10.19,4.07-20.15,8.37-30.06,12.73l91.68,73.61C2524.21,1551.29,2534.67,1546.78,2545.38,1542.57Zm644.51-26.46,62.4-82.71c-11.29-3.1-22.48-6.37-33.95-9.14l-64.08,82.25C3166.34,1509.38,3178.08,1512.8,3189.89,1516.11Zm231,108.15c8.08,6,16,12.07,23.32,18.28l125.83-53.32c-7.1-5.9-14.63-11.69-22.24-17.43Zm-44.35-29.66q13.72,8.25,26.4,16.83l115.39-60.64q-12.2-8.18-25.17-16.06Zm55.71-93.51-105,66.62q14.9,7.3,29.16,15.24l103.7-67.33Q3446.39,1508.15,3432.26,1501.09ZM2728,1492.9l-49.82-86.08c-11.89,2-23.52,4.71-35.25,7.07l48,86.24C2703.2,1497.62,2715.46,1495,2728,1492.9Zm886.62,137.63c-6-6.3-12.59-12.44-19.12-18.6l-135.82,44.5c6.94,6.43,13.84,12.89,20.05,19.51Zm-950.51-124.91-65-82.49c-11.44,2.75-22.59,6-33.87,9l63.33,82.94C2640.34,1511.83,2652,1508.45,2664.07,1505.62Zm398.45-16,31.22-88.53c-12.16-1.67-24.21-3.57-36.46-4.92l-33.06,88.47C3037.09,1486,3049.79,1487.79,3062.52,1489.6ZM2603,1522.29l-79.5-78.16c-10.86,3.42-21.48,7.19-32.13,10.93l77.93,78.69C2580.47,1529.78,2591.58,1525.84,2603,1522.29Zm393-40.07,15-90c-12.38-.94-24.73-1.91-37.15-2.51l-16.83,90C2970.1,1480.26,2983.06,1481.19,2996.05,1482.22ZM2861,1479.51l-17.78-90c-12.42.55-24.76,1.48-37.15,2.38l16,90.05C2835,1480.92,2848,1480,2861,1479.51Zm-67.1,4.69-34-88.59c-12.25,1.3-24.29,3.16-36.42,4.8l32.16,88.64C2768.33,1487.28,2781,1485.51,2793.88,1484.2Zm571.82-13-92.36,72.64c10.76,4.25,21.27,8.8,31.67,13.47l90.87-73.27C3385.93,1479.68,3375.92,1475.34,3365.7,1471.24Zm191.29,393,156.77-.24q.36-10.8-.12-21.59l-156.77-.8A216.23,216.23,0,0,1,3557,1864.2Zm-62.91,150.6,143.65,36.57c5.3-6.51,10.89-12.94,15.64-19.56l-142.88-37.51C3505.59,2001.25,3499.73,2008,3494.08,2014.8Zm-32.3,34.21,136.28,45c6.48-6.15,13-12.28,18.94-18.55l-135.38-45.9C3475.47,2036.15,3468.62,2042.58,3461.78,2049Zm-38.41,32,127.5,52.93c7.54-5.72,15-11.48,22-17.35l-126.4-53.78C3439.21,2069,3431.39,2075.05,3423.37,2081Zm-529.92,143.55,1.41,90.52c12.47.19,24.91.22,37.39.07l.42-90.51C2919.58,2224.86,2906.54,2224.83,2893.45,2224.58Zm-628.36-385.35-156.78.24c-.24,7.21-.2,14.39.13,21.59l156.78.81A216.42,216.42,0,0,1,2265.09,1839.23Zm663.54-360.38-1.41-90.52q-18.7-.28-37.4-.07l-.41,90.51C2902.5,1478.57,2915.54,1478.6,2928.63,1478.85Zm618.23,307.52,153.24-19.09c-2.33-7.06-5.63-14-8.52-21l-153.34,18C3541.37,1771.61,3544.5,1778.94,3546.86,1786.37Zm8.56,38.78,155.86-9.71c-1.07-7.17-2.73-14.3-4.37-21.45L3551,1802.63C3552.81,1810.14,3554.41,1817.62,3555.42,1825.15ZM3509,1711.3l142.46-37c-4.81-6.63-10.47-13.09-15.84-19.61l-143.26,36C3498.05,1697.54,3504,1704.33,3509,1711.3Zm22.43,37L3680.18,1720c-3.6-6.88-8.31-13.6-12.45-20.4l-149.13,27.18C3523.06,1733.94,3527.72,1741,3531.39,1748.25Zm7.81,193.2L3692.72,1960c2.84-7,6.06-14,8.32-21l-153.46-19.63C3545.3,1926.79,3542.25,1934.11,3539.2,1941.45Zm12.37-38.35,156,9.23c1.55-7.15,3.15-14.28,4.11-21.45l-156-10.26A224.58,224.58,0,0,1,3551.57,1903.1ZM3520,1978.82l149.4,27.72c4.07-6.78,8.72-13.49,12.24-20.35l-149.1-28.77C3528.92,1964.64,3524.35,1971.71,3520,1978.82Zm-225.85-533.3-78.65,77.88c11.46,3.59,22.65,7.57,33.81,11.59l77.08-78.42C3315.69,1452.79,3305.05,1449,3294.14,1445.52Zm-828.44,675L2362,2187.82q13.68,7.47,27.82,14.53l105.06-66.64C2484.94,2130.84,2475.25,2125.75,2465.7,2120.48Zm495.39,103.45,17.77,90c12.44-.56,24.78-1.49,37.15-2.38l-16-90.06C2987.08,2222.52,2974.13,2223.39,2961.09,2223.93Zm-266.4-21.43-47.07,86.1c11.77,2.39,23.41,5.12,35.34,7.18l48.89-85.91C2719.32,2207.75,2707.05,2205.07,2694.69,2202.5ZM2826,2221.2l-15,90c12.4.93,24.73,1.9,37.16,2.5l16.82-90C2852,2223.16,2839,2222.24,2826,2221.2Zm-309-75.12-90.88,73.28c9.94,4.4,20,8.75,30.19,12.84l92.36-72.65C2538,2155.3,2527.47,2150.75,2517.07,2146.08Zm55.71,22.37-77.08,78.43c10.67,3.76,21.32,7.58,32.23,11l78.66-77.89C2595.13,2176.44,2584,2172.45,2572.78,2168.45Zm59.42,18.87L2569.78,2270c11.29,3.1,22.47,6.36,34,9.15l64.08-82.28C2655.76,2194,2644,2190.62,2632.2,2187.32Zm127.34,26.5-31.2,88.54c12.15,1.68,24.21,3.58,36.46,4.93l33-88.48C2785,2217.45,2772.27,2215.64,2759.54,2213.82Zm570.75-76.59,105.79,67q14.05-7,27.66-14.42l-104.43-67.7Q3345.09,2130,3330.29,2137.23Zm-53.61,23.64,93.16,73c10.17-4.06,20.14-8.37,30.06-12.73l-91.69-73.6C3297.86,2152.15,3287.41,2156.65,3276.68,2160.87Zm-248.46,58.35,34,88.6c12.21-1.3,24.26-3.16,36.39-4.79l-32.15-88.65C3053.75,2216.14,3041.06,2217.92,3028.22,2219.22Zm351.15-108.7,117.26,60.29q12.87-7.84,25-16l-116.05-61.08C3397.19,2099.47,3388.42,2105.05,3379.37,2110.52Zm-160.31,70.62,79.49,78.17c10.87-3.44,21.48-7.2,32.12-10.93l-77.91-78.7C3241.61,2173.64,3230.48,2177.6,3219.06,2181.14Zm-124.94,29.39,49.82,86.09c11.89-2,23.5-4.71,35.25-7.06l-48-86.27C3118.88,2205.81,3106.63,2208.45,3094.12,2210.53Zm63.89-12.72,64.95,82.5c11.46-2.75,22.62-6,33.87-9l-63.33-82.94C3181.73,2191.6,3170,2195,3158,2197.81ZM2275.2,1917.07,2122,1936.16c2.34,7.07,5.62,14,8.53,21l153.36-18C2280.71,1931.84,2277.56,1924.5,2275.2,1917.07Zm26.89-192.47-149.4-27.7c-4.09,6.78-8.72,13.49-12.24,20.36l149.1,28.75C2293.15,1738.8,2297.73,1731.72,2302.09,1724.6ZM2282.88,1762l-153.54-18.56c-2.83,7-6.05,13.95-8.3,21l153.44,19.64C2276.76,1776.65,2279.81,1769.33,2282.88,1762Zm45.1-73.34-143.64-36.57c-5.28,6.5-10.88,13-15.64,19.55l142.89,37.5C2316.49,1702.18,2322.33,1695.43,2328,1688.64Zm70.71-66.23-127.48-52.94c-7.55,5.73-15,11.48-22,17.36l126.4,53.78C2382.87,1634.42,2390.68,1628.38,2398.69,1622.41Zm-38.4,32-136.29-45c-6.47,6.15-13,12.27-18.93,18.55l135.39,45.89C2346.6,1667.28,2353.44,1660.86,2360.29,1654.43Zm-56.56,498.22q12.2,8.16,25.17,16.06l116.62-59.88q-13.7-8.26-26.37-16.84Zm-33.22-352.32-156-9.22c-1.54,7.14-3.14,14.26-4.12,21.45l156,10.27A222.15,222.15,0,0,1,2270.51,1800.33ZM2442.7,1592.9l-117.25-60.28c-8.58,5.23-16.93,10.55-25,16l116.05,61.08Q2429.07,1601.1,2442.7,1592.9Zm-176,285.38L2110.8,1888c1.06,7.18,2.74,14.31,4.35,21.46l155.9-8.66A226.88,226.88,0,0,1,2266.66,1878.28Zm-59.18,194.62c6,6.3,12.59,12.45,19.14,18.62l135.82-44.5c-6.94-6.45-13.84-12.91-20.05-19.53Zm44.53,41.31c7.11,5.91,14.63,11.69,22.25,17.43l126.92-52.47c-8.08-6-16-12.07-23.32-18.28Zm61.13-122.07-142.49,37c4.81,6.62,10.46,13.08,15.84,19.6l143.27-36C2324.05,2005.88,2318.11,1999.1,2313.14,1992.14Zm-22.44-37-148.8,28.23c3.58,6.89,8.29,13.6,12.45,20.41l149.12-27.18C2299,1969.49,2294.37,1962.4,2290.7,1955.17Zm201.09-389-105.79-67q-14.07,7-27.66,14.42l104.44,67.71Q2477,1573.49,2491.79,1566.2Z"/><path class="cls-12" d="M3420.9,1624.26c8.08,6,16,12.07,23.32,18.28l125.83-53.32c-7.1-5.9-14.63-11.69-22.24-17.43Zm-817.88-102-79.5-78.16c-10.86,3.42-21.48,7.19-32.13,10.93l77.93,78.69C2580.47,1529.78,2591.58,1525.84,2603,1522.29Zm393-40.07,15-90c-12.38-.94-24.73-1.91-37.15-2.51l-16.83,90C2970.1,1480.26,2983.06,1481.19,2996.05,1482.22ZM2861,1479.51l-17.78-90c-12.42.55-24.76,1.48-37.15,2.38l16,90.05C2835,1480.92,2848,1480,2861,1479.51Zm504.72-8.27-92.36,72.64c10.76,4.25,21.27,8.8,31.67,13.47l90.87-73.27C3385.93,1479.68,3375.92,1475.34,3365.7,1471.24ZM3423.37,2081l127.5,52.93c7.54-5.72,15-11.48,22-17.35l-126.4-53.78C3439.21,2069,3431.39,2075.05,3423.37,2081Zm-529.92,143.55,1.41,90.52c12.47.19,24.91.22,37.39.07l.42-90.51C2919.58,2224.86,2906.54,2224.83,2893.45,2224.58Zm-628.36-385.35-156.78.24c-.24,7.21-.2,14.39.13,21.59l156.78.81A216.42,216.42,0,0,1,2265.09,1839.23Zm1281.77-52.86,153.24-19.09c-2.33-7.06-5.63-14-8.52-21l-153.34,18C3541.37,1771.61,3544.5,1778.94,3546.86,1786.37Zm-7.66,155.08L3692.72,1960c2.84-7,6.06-14,8.32-21l-153.46-19.63C3545.3,1926.79,3542.25,1934.11,3539.2,1941.45Zm-907,245.87L2569.78,2270c11.29,3.1,22.47,6.36,34,9.15l64.08-82.28C2655.76,2194,2644,2190.62,2632.2,2187.32Zm586.86-6.18,79.49,78.17c10.87-3.44,21.48-7.2,32.12-10.93l-77.91-78.7C3241.61,2173.64,3230.48,2177.6,3219.06,2181.14ZM2275.2,1917.07,2122,1936.16c2.34,7.07,5.62,14,8.53,21l153.36-18C2280.71,1931.84,2277.56,1924.5,2275.2,1917.07Zm123.49-294.66-127.48-52.94c-7.55,5.73-15,11.48-22,17.36l126.4,53.78C2382.87,1634.42,2390.68,1628.38,2398.69,1622.41ZM2252,2114.21c7.11,5.91,14.63,11.69,22.25,17.43l126.92-52.47c-8.08-6-16-12.07-23.32-18.28Z"/><path class="cls-3" d="M2545.38,1542.57l-93.14-73c-10.19,4.07-20.15,8.37-30.06,12.73l91.68,73.61C2524.21,1551.29,2534.67,1546.78,2545.38,1542.57Zm644.51-26.46,62.4-82.71c-11.29-3.1-22.48-6.37-33.95-9.14l-64.08,82.25C3166.34,1509.38,3178.08,1512.8,3189.89,1516.11Zm242.37-15-105,66.62q14.9,7.3,29.16,15.24l103.7-67.33Q3446.39,1508.15,3432.26,1501.09Zm-768.19,4.53-65-82.49c-11.44,2.75-22.59,6-33.87,9l63.33,82.94C2640.34,1511.83,2652,1508.45,2664.07,1505.62Zm398.45-16,31.22-88.53c-12.16-1.67-24.21-3.57-36.46-4.92l-33.06,88.47C3037.09,1486,3049.79,1487.79,3062.52,1489.6ZM3461.78,2049l136.28,45c6.48-6.15,13-12.28,18.94-18.55l-135.38-45.9C3475.47,2036.15,3468.62,2042.58,3461.78,2049Zm93.64-223.86,155.86-9.71c-1.07-7.17-2.73-14.3-4.37-21.45L3551,1802.63C3552.81,1810.14,3554.41,1817.62,3555.42,1825.15ZM3509,1711.3l142.46-37c-4.81-6.63-10.47-13.09-15.84-19.61l-143.26,36C3498.05,1697.54,3504,1704.33,3509,1711.3Zm22.43,37L3680.18,1720c-3.6-6.88-8.31-13.6-12.45-20.4l-149.13,27.18C3523.06,1733.94,3527.72,1741,3531.39,1748.25ZM3520,1978.82l149.4,27.72c4.07-6.78,8.72-13.49,12.24-20.35l-149.1-28.77C3528.92,1964.64,3524.35,1971.71,3520,1978.82ZM2826,2221.2l-15,90c12.4.93,24.73,1.9,37.16,2.5l16.82-90C2852,2223.16,2839,2222.24,2826,2221.2Zm-309-75.12-90.88,73.28c9.94,4.4,20,8.75,30.19,12.84l92.36-72.65C2538,2155.3,2527.47,2150.75,2517.07,2146.08Zm242.47,67.74-31.2,88.54c12.15,1.68,24.21,3.58,36.46,4.93l33-88.48C2785,2217.45,2772.27,2215.64,2759.54,2213.82Zm517.14-53,93.16,73c10.17-4.06,20.14-8.37,30.06-12.73l-91.69-73.6C3297.86,2152.15,3287.41,2156.65,3276.68,2160.87Zm-182.56,49.66,49.82,86.09c11.89-2,23.5-4.71,35.25-7.06l-48-86.27C3118.88,2205.81,3106.63,2208.45,3094.12,2210.53ZM2275.2,1917.07,2122,1936.16c2.34,7.07,5.62,14,8.53,21l153.36-18C2280.71,1931.84,2277.56,1924.5,2275.2,1917.07Zm7.68-155.09-153.54-18.56c-2.83,7-6.05,13.95-8.3,21l153.44,19.64C2276.76,1776.65,2279.81,1769.33,2282.88,1762Zm115.81-139.57-127.48-52.94c-7.55,5.73-15,11.48-22,17.36l126.4,53.78C2382.87,1634.42,2390.68,1628.38,2398.69,1622.41Zm-85.55,369.73-142.49,37c4.81,6.62,10.46,13.08,15.84,19.6l143.27-36C2324.05,2005.88,2318.11,1999.1,2313.14,1992.14Z"/><path class="cls-11" d="M3135.1,1280.64c-10.66-1.43-21.17-3.33-31.89-4.55l-23.72,63.49q16.74,1.89,33.37,4.17Zm-48,54.3,19.75-52.89c4.81.62,9.63,1.36,14.33,2.08l6.55,1-18.54,52.59C3101.42,1336.69,3094.11,1335.77,3087.08,1334.94Zm150.34-37.27c-10.35-2.06-20.56-4.45-31-6.31l-35,61.5q16.32,2.88,32.47,6.12ZM3180,1348.84l29.25-51.38c5.08,1,10.17,2,15.12,3.1l4.67,1-28,51.27C3194.16,1351.47,3187.14,1350.14,3180,1348.84Zm273.77,87.52,64.75-52.2c-8.76-3.83-17.55-7.64-26.48-11.27l-65.86,51.81C3435.49,1428.46,3444.67,1432.37,3453.78,1436.36Zm39.15-57.19c5.09,2.1,10.17,4.26,15.12,6.4L3452.93,1430c-5.54-2.41-10.83-4.67-16-6.81Zm-462.58-109.35c-10.88-.78-21.68-1.77-32.59-2.35l-12,64.49q17,.87,33.94,2.09Zm-38.1,57,10-53.59c5.52.35,11,.78,16.44,1.21l5.26.4-8.89,53.4C3007.69,1327.71,3000.15,1327.25,2992.25,1326.81Zm438,22.88c-9.41-3.26-18.75-6.6-28.3-9.67l-56.16,55.61q14.89,4.78,29.55,9.93ZM3356,1393.2l47.4-46.94c5.66,1.87,11.32,3.83,16.85,5.76l-46.42,47.22C3367.71,1397.12,3361.8,1395.12,3356,1393.2Zm-19.85-72.43c-9.94-2.68-19.74-5.54-29.79-8l-45.86,58.86q15.7,3.86,31.21,8ZM3270,1368.33l38.48-49.4c5.45,1.4,10.9,2.91,16.19,4.37l2.22.62-37.34,49.48C3283.24,1371.7,3276.77,1370,3270,1368.33Zm-439.29-36.66L2818,1267.15c-10.89.53-21.68,1.49-32.54,2.23l11.39,64.26Q2813.73,1332.47,2830.72,1331.67Zm-34-57.62c5.51-.41,11.17-.84,16.81-1.17l10.6,53.63c-7.89.41-15.41.85-22.76,1.33l-9.47-53.43Zm-325.32,120-56.78-55.83c-9.52,3-18.81,6.36-28.18,9.59l55.5,56.06Q2456.53,1398.79,2471.38,1394.05Zm-58.25-49.59,47.95,47.15c-5.74,1.88-11.6,3.85-17.69,6l-47-47.43C2401.91,1348.23,2407.51,1346.3,2413.13,1344.46Zm143.23,25.88-46.5-59c-10,2.44-19.81,5.27-29.7,7.91l45.08,59Q2540.69,1374.12,2556.36,1370.34Zm-65.25-48.43c5.44-1.49,11-3,16.64-4.44l39,49.57c-6.73,1.67-13.15,3.32-19.42,5l-37.91-49.66Zm-99.87,100.92-66.43-52c-8.89,3.6-17.64,7.38-26.36,11.17l65.33,52.44Q2377.37,1428.45,2391.24,1422.83Zm-67.3-45.77,56.5,44.26c-5.08,2.11-10.32,4.34-15.82,6.72L2309,1383.37C2313.84,1381.27,2318.86,1379.14,2323.94,1377.06Zm321.31-25.15-35.68-61.64c-10.42,1.83-20.58,4.19-30.93,6.2l34.2,61.44Q2629,1354.73,2645.25,1351.91ZM2592,1299.34c4.85-1,9.82-2,14.8-3l29.82,51.52c-7.06,1.26-14,2.57-20.89,3.9l-28.61-51.41Zm934.35,172.36,73.89-48q-12.07-6.49-24.41-12.74l-74.87,47.48Q3513.77,1464.92,3526.31,1471.7Zm49.78-54.41c4.28,2.17,8.69,4.46,13.33,6.9l-63.37,41.15q-7-3.77-14.07-7.39ZM2737,1339l-24.41-63.59c-10.7,1.19-21.19,3-31.83,4.43l22.93,63.2C2714.78,1341.55,2725.88,1340.18,2737,1339Zm-42.33-55.61c4.7-.7,9.52-1.42,14.33-2l20.34,53c-7,.8-14.27,1.69-22,2.69l-19.12-52.69ZM2925.26,1330l-1-64.71q-9.87-.11-19.72-.11-6.54,0-13.07,0l-.31,64.71q7.13-.07,14.26-.07Q2915.35,1329.89,2925.26,1330Zm-28.34-59.32,7.62,0q7.15,0,14.33.06l.82,53.74q-7.12-.07-14.27-.07l-8.76,0Zm-580.05,185.63-75.38-47.76c-8.19,4.12-16.26,8.35-24.28,12.66l74.43,48.24Q2304.09,1462.74,2316.87,1456.33Zm-75.69-41.47,64.62,40.94c-4.63,2.38-9.28,4.82-13.9,7.31l-63.9-41.42C2232.56,1419.29,2236.92,1417,2241.18,1414.86Zm1489.9,659.6,102.28,26c4.58-5.71,9.48-11.36,13.71-17.15l-102.26-26.84Q3738.24,2065.52,3731.08,2074.46Zm106.59,12.07c-1.35,1.68-2.72,3.35-4.07,5l-2.29,2.79-90.7-23.08c2.12-2.74,4.25-5.56,6.41-8.49Zm-71.34-62.65,106.42,19.74c3.5-6,7.56-11.83,10.73-17.85l-106.76-20.59Q3771.83,2014.57,3766.33,2023.88Zm108.57,5.81c-.83,1.37-1.7,2.75-2.58,4.16-.77,1.23-1.55,2.46-2.31,3.7L3775,2019.91c1.6-2.83,3.17-5.7,4.72-8.58Zm-82.75-58.27,109.45,13.23c2.41-6.14,5.62-12.2,7.68-18.37l-110.13-14.1C3797,1958.62,3794.68,1965,3792.15,1971.42Zm10.76-13.23,98.72,12.63c-.57,1.32-1.17,2.65-1.78,4s-1.15,2.57-1.71,3.88l-98.34-11.89C3800.91,1963.85,3802,1961,3802.91,1958.19Zm-116.17,164.37,97.09,32.05c5.61-5.41,11.33-10.78,16.6-16.28l-96.69-32.78Q3695.55,2114.13,3686.74,2122.56Zm103.62,18.14c-2.34,2.3-4.73,4.59-7.07,6.83l-.87.84L3697,2120.19c2.86-2.83,5.6-5.59,8.25-8.33Zm18-223,111.3,6.57c1.29-6.27,3-12.5,3.88-18.79l-111.77-7.36C3810.84,1904.63,3809.73,1911.15,3808.37,1917.67Zm8.08-13.78,100.62,6.63c-.42,2-.88,4.11-1.37,6.24l-.39,1.74L3815,1912.57C3815.49,1909.73,3816,1906.85,3816.45,1903.89Zm-243.34,305.44,83.55,43q11.19-6.95,21.94-14l-82.73-43.52Q3584.79,2202.14,3573.11,2209.33Zm94.68,29.46c-3.63,2.34-7.41,4.73-11.38,7.22l-72.22-37.14q6.14-3.88,12-7.75Zm-33.92-71.11,90.84,37.72c6.55-5,13.1-10.09,19.33-15.23l-90.14-38.35C3647.43,2157.17,3640.73,2162.45,3633.87,2167.68Zm99.62,24c-3.08,2.44-6.27,4.91-9.61,7.49l-79.19-32.89c3.55-2.78,6.91-5.46,10.12-8.07Zm-141.33-680.49,82.23-43.23c-7.18-4.75-14.56-9.45-22.06-14.09l-83.09,42.66Q3581,1503.72,3592.16,1511.15Zm71.43-43.74-71.11,37.38q-5.92-3.9-12.15-7.83l71.74-36.84C3656.15,1462.66,3660,1465.08,3663.59,1467.41Zm151.17,395.79,112.08-.18c.14-6.32.09-12.62-.12-18.94l-112.07-.57Q3815,1853.35,3814.76,1863.2Zm106.62-13.67q.07,4.07,0,8l-101.1.16c0-2.9,0-5.81,0-8.7ZM3701,1600.73l96.35-32.43c-5.33-5.5-11.1-10.9-16.78-16.34l-96.75,31.71Q3692.69,1592.13,3701,1600.73Zm78.16-42.54,1.27,1.22c2.25,2.14,4.54,4.32,6.79,6.52l-84.69,28.5c-2.69-2.75-5.46-5.54-8.37-8.38Zm-128.49-3.9,89.73-38c-6.3-5.16-12.89-10.23-19.52-15.29l-90.41,37.38C3637.37,1543.62,3644.13,1548.93,3650.66,1554.29Zm79.14-39.49L3651.56,1548c-3.25-2.65-6.65-5.35-10.25-8.15l78.74-32.56C3723.27,1509.71,3726.55,1512.24,3729.8,1514.8ZM3742.6,1650l102-26.48c-4.3-5.8-9.26-11.47-13.91-17.2l-102,25.66Q3736,1640.88,3742.6,1650Zm88.36-34.72c1.38,1.66,2.78,3.35,4.16,5l-90.32,23.44c-2.19-2.94-4.36-5.78-6.53-8.55l90.36-22.73Zm-19.67,193.36,111.69-7c-1-6.28-2.72-12.53-4.06-18.81L3807.67,1789C3809.1,1795.53,3810.28,1802.06,3811.29,1808.6Zm103.3-20,.48,2c.48,2,.95,4,1.37,6l-100.53,6.26c-.5-3-1-5.86-1.58-8.69Zm-139.51-87.17,106.52-20.22c-3.22-6-7.35-11.91-10.92-17.89l-106.2,19.36Q3770.11,1692,3775.08,1701.39Zm95.25-28.31c.9,1.41,1.78,2.79,2.63,4.16l-95,18c-1.58-2.91-3.19-5.8-4.82-8.63l94.79-17.28Zm-72.26,81.38,110-13.7c-2.12-6.18-5.42-12.25-7.88-18.41l-109.32,12.84C3793.46,1741.6,3795.9,1748,3798.07,1754.46Zm98.67-26.19c.6,1.36,1.22,2.7,1.82,4s1.21,2.63,1.78,3.91l-98.54,12.27c-1-2.81-2.07-5.69-3.22-8.67ZM2687,2422.8c10.65,1.42,21.17,3.33,31.9,4.56l23.71-63.51c-11.16-1.25-22.28-2.66-33.37-4.16Zm48-54.31-19.75,52.9c-4.79-.62-9.6-1.36-14.27-2.08l-6.62-1,18.54-52.6C2720.66,2366.74,2728,2367.67,2735,2368.49Zm161.82,4.93,1,64.71q9.84.1,19.7.1,6.54,0,13.09,0l.29-64.71q-7.1.06-14.2.07Q2906.77,2373.55,2896.82,2373.42Zm28.35,59.32h-7.64q-7.16,0-14.31-.05l-.83-53.74q7.16.06,14.32.07,4.35,0,8.7,0Zm-133.44.87c10.87.79,21.68,1.79,32.57,2.36l12-64.49q-17-.87-33.93-2.09Zm38.09-57-10,53.6c-5.6-.36-11.23-.8-16.71-1.23l-5-.39,8.88-53.39C2814.39,2375.73,2821.93,2376.19,2829.82,2376.62Zm-245.16,29.15c10.35,2.06,20.55,4.45,31,6.31l35-61.5q-16.3-2.89-32.48-6.12Zm57.41-51.17L2612.83,2406c-5.12-1-10.25-2.06-15.23-3.12l-4.58-1,28-51.28C2627.9,2352,2634.93,2353.3,2642.07,2354.6Zm-273.78-87.52-64.76,52.2c8.76,3.83,17.55,7.63,26.49,11.27l65.86-51.81Q2381.93,2273.09,2368.29,2267.08Zm-39.15,57.18c-5.14-2.11-10.26-4.3-15.12-6.4l55.12-44.43c5.54,2.41,10.83,4.67,16,6.81Zm62.73,29.48c9.39,3.28,18.74,6.61,28.28,9.68l56.17-55.62q-14.91-4.77-29.55-9.92Zm74.2-43.5-47.41,46.94c-5.65-1.86-11.3-3.82-16.83-5.76l46.41-47.22C2454.36,2306.32,2460.26,2308.32,2466.07,2310.24Zm19.85,72.43c9.94,2.68,19.75,5.55,29.8,8l45.85-58.87q-15.69-3.85-31.21-8Zm66.15-47.56-38.48,49.4c-5.49-1.41-11-2.93-16.33-4.41l-2.1-.58,37.35-49.48C2538.81,2331.73,2545.28,2333.41,2552.07,2335.11Zm713.63-2,46.5,59c10-2.44,19.81-5.27,29.72-7.92l-45.09-59Q3281.38,2329.32,3265.7,2333.1Zm65.3,48.41c-5.46,1.5-11.07,3-16.69,4.46l-39-49.57c6.76-1.68,13.18-3.33,19.43-5l37.91,49.66Zm19.71-72.13,56.77,55.83c9.52-3.05,18.82-6.35,28.18-9.59l-55.51-56Q3365.56,2304.64,3350.71,2309.38ZM3409,2359,3361,2311.82c5.74-1.88,11.6-3.85,17.68-6l47,47.43C3420.16,2355.2,3414.56,2357.14,3409,2359Zm21.88-78.36,66.44,52c8.89-3.61,17.62-7.38,26.36-11.17L3458.3,2269C3449.24,2273,3440.09,2276.88,3430.83,2280.61Zm67.31,45.78-56.51-44.28c5.09-2.11,10.34-4.34,15.83-6.72l55.65,44.68C3508,2322.26,3503.09,2324.35,3498.14,2326.39Zm7.06-79.28,75.39,47.75q12.27-6.18,24.26-12.65L3530.44,2234Q3518,2240.69,3505.2,2247.11Zm75.7,41.46-64.63-40.94c4.64-2.39,9.3-4.83,13.91-7.3l63.88,41.42C3589.52,2284.14,3585.16,2286.4,3580.9,2288.57Zm-1285.14-56.84-73.89,48q12.08,6.49,24.41,12.74l74.87-47.48Q2308.28,2238.52,2295.76,2231.73ZM2246,2286.15c-4.28-2.18-8.7-4.47-13.32-6.91L2296,2238.1q7,3.77,14.07,7.39ZM3085,2364.47l24.42,63.59c10.72-1.19,21.2-3,31.84-4.44l-22.93-63.19C3107.3,2361.89,3096.19,2363.26,3085,2364.47Zm42.35,55.6c-4.7.71-9.53,1.43-14.35,2l-20.34-53c7-.8,14.26-1.7,22-2.7l19.12,52.69ZM2249,1494.1l-83.56-43c-7.46,4.63-14.77,9.28-21.92,14l82.72,43.53Q2237.29,1501.3,2249,1494.1Zm-94.68-29.46c3.62-2.33,7.39-4.72,11.38-7.2l72.22,37.13q-6.14,3.89-12,7.75Zm837.09,907.12,12.73,64.53c10.9-.54,21.7-1.5,32.55-2.23l-11.39-64.27Q3008.35,2371,2991.37,2371.76Zm33.6,57.65c-5.38.41-10.91.82-16.41,1.15L2998,2376.92c7.8-.4,15.42-.84,22.76-1.33l9.46,53.43Zm151.86-77.88,35.68,61.63c10.41-1.83,20.6-4.18,30.93-6.2l-34.19-61.44Q3193.13,2348.72,3176.83,2351.53Zm53.59,52.5c-4.94,1-10,2.09-15.1,3l-29.82-51.52c7.09-1.27,14.08-2.57,20.9-3.89l28.61,51.4Zm-1200.5-672-109.45-13.23c-2.4,6.14-5.61,12.2-7.68,18.38l110.13,14.09C2025,1744.82,2027.39,1738.41,2029.92,1732Zm-10.76,13.24-98.72-12.63q.86-2,1.77-4c.57-1.28,1.16-2.59,1.73-3.92l98.33,11.9C2021.15,1739.59,2020.12,1742.46,2019.16,1745.25Zm36.58-65.7-106.41-19.74c-3.5,6-7.58,11.84-10.73,17.85l106.74,20.6Q2050.23,1688.86,2055.74,1679.55Zm-108.57-5.81,2.54-4.08c.79-1.26,1.58-2.51,2.36-3.77l95,17.63q-2.4,4.24-4.72,8.59Zm66.53,112-111.29-6.58c-1.29,6.27-3,12.5-3.89,18.79l111.77,7.36C2011.23,1798.81,2012.34,1792.28,2013.7,1785.77Zm-8.08,13.77L1905,1792.92c.42-2,.88-4.06,1.35-6.16l.42-1.82,100.34,5.93C2006.58,1793.69,2006.09,1796.57,2005.62,1799.54Zm129.71-218.67-97.08-32c-5.6,5.42-11.33,10.78-16.6,16.28l96.68,32.77C2123.79,1592.15,2129.48,1586.49,2135.33,1580.87Zm-103.61-18.14c2.11-2.07,4.26-4.13,6.36-6.15l1.58-1.52,85.38,28.19c-2.87,2.83-5.61,5.59-8.25,8.32Zm156.48-27L2097.36,1498c-6.56,5-13.09,10.09-19.34,15.23l90.15,38.36C2174.64,1546.27,2181.34,1541,2188.2,1535.75Zm-99.62-24c3.09-2.45,6.27-4.91,9.61-7.49l79.19,32.88c-3.55,2.78-6.91,5.46-10.12,8.08Zm-81.27,328.44-112,.18q-.24,9.46.1,18.93l112.06.57Q2007,1850.08,2007.31,1840.24ZM1900.7,1853.9c0-2.67-.07-5.35,0-8l101.08-.16c0,2.89,0,5.79,0,8.68ZM2091,1629l-102.27-26c-4.59,5.72-9.49,11.37-13.72,17.15L2077.26,1647Q2083.83,1637.91,2091,1629Zm-106.6-12.07c1.36-1.69,2.74-3.36,4.1-5,.76-.93,1.52-1.85,2.27-2.78l90.7,23.09c-2.13,2.75-4.26,5.57-6.42,8.49Zm245.51,575.38-82.23,43.22c7.18,4.76,14.57,9.45,22.06,14.1l83.1-42.66Q2241.09,2199.71,2229.9,2192.29ZM2158.48,2236l71.1-37.38c4,2.6,8,5.21,12.15,7.83L2170,2243.32C2165.92,2240.78,2162.1,2238.36,2158.48,2236Zm-37.41-133.33-96.33,32.43c5.34,5.51,11.1,10.91,16.78,16.34l96.74-31.71C2132.34,2114.12,2126.59,2108.44,2121.07,2102.7Zm-78.14,42.54-.74-.7c-2.42-2.32-4.89-4.67-7.33-7l84.68-28.5c2.68,2.75,5.46,5.53,8.37,8.39Zm36.53-91.76-102,26.48c4.29,5.8,9.27,11.46,13.9,17.2l102-25.66C2088.53,2065.54,2083.91,2059.52,2079.46,2053.48Zm-88.61,34.39c-1.29-1.55-2.6-3.12-3.89-4.7l90.3-23.46c2.2,2.95,4.37,5.79,6.53,8.55L1993.44,2091C1992.58,2090,1991.71,2088.91,1990.85,2087.87Zm180.56,61.27-89.73,38c6.29,5.16,12.89,10.23,19.51,15.29l90.42-37.39C2184.7,2159.81,2177.93,2154.51,2171.41,2149.14Zm-79.15,39.5,78.24-33.16c3.24,2.63,6.64,5.34,10.25,8.15L2102,2196.19C2098.8,2193.73,2095.51,2191.2,2092.26,2188.64ZM2047,2002l-106.52,20.21c3.23,6,7.35,11.92,10.93,17.89l106.2-19.34C2053.84,2014.58,2050.32,2008.33,2047,2002Zm-95.14,28.47q-1.41-2.19-2.74-4.32l95-18q2.37,4.36,4.82,8.64l-94.78,17.26C1953.35,2032.89,1952.6,2031.7,1951.84,2030.51ZM2024,1949l-110,13.69c2.12,6.18,5.42,12.26,7.89,18.41l109.3-12.84C2028.6,1961.84,2026.17,1955.42,2024,1949Zm-98.65,26.18c-.6-1.34-1.21-2.67-1.81-4s-1.22-2.66-1.8-4l98.53-12.27c1,2.81,2.07,5.69,3.22,8.67Zm85.44-80.33-111.69,7c1,6.29,2.72,12.53,4.07,18.8l111.24-6.16C2013,1907.91,2011.78,1901.37,2010.78,1894.83Zm-103.3,20-.48-2c-.48-2-1-4-1.37-5.94l100.52-6.27c.5,3,1,5.86,1.59,8.7Z"/><path class="cls-11" d="M3030.35,1269.82c-10.88-.78-21.68-1.77-32.59-2.35l-12,64.49q17,.87,33.94,2.09Zm-38.1,57,10-53.59c5.52.35,11,.78,16.44,1.21l5.26.4-8.89,53.4C3007.69,1327.71,3000.15,1327.25,2992.25,1326.81Zm438,22.88c-9.41-3.26-18.75-6.6-28.3-9.67l-56.16,55.61q14.89,4.78,29.55,9.93ZM3356,1393.2l47.4-46.94c5.66,1.87,11.32,3.83,16.85,5.76l-46.42,47.22C3367.71,1397.12,3361.8,1395.12,3356,1393.2Zm-19.85-72.43c-9.94-2.68-19.74-5.54-29.79-8l-45.86,58.86q15.7,3.86,31.21,8ZM3270,1368.33l38.48-49.4c5.45,1.4,10.9,2.91,16.19,4.37l2.22.62-37.34,49.48C3283.24,1371.7,3276.77,1370,3270,1368.33Zm-798.63,25.72-56.78-55.83c-9.52,3-18.81,6.36-28.18,9.59l55.5,56.06Q2456.53,1398.79,2471.38,1394.05Zm-58.25-49.59,47.95,47.15c-5.74,1.88-11.6,3.85-17.69,6l-47-47.43C2401.91,1348.23,2407.51,1346.3,2413.13,1344.46ZM2737,1339l-24.41-63.59c-10.7,1.19-21.19,3-31.83,4.43l22.93,63.2C2714.78,1341.55,2725.88,1340.18,2737,1339Zm-42.33-55.61c4.7-.7,9.52-1.42,14.33-2l20.34,53c-7,.8-14.27,1.69-22,2.69l-19.12-52.69Zm-377.82,173-75.38-47.76c-8.19,4.12-16.26,8.35-24.28,12.66l74.43,48.24Q2304.09,1462.74,2316.87,1456.33Zm-75.69-41.47,64.62,40.94c-4.63,2.38-9.28,4.82-13.9,7.31l-63.9-41.42C2232.56,1419.29,2236.92,1417,2241.18,1414.86Zm1525.15,609,106.42,19.74c3.5-6,7.56-11.83,10.73-17.85l-106.76-20.59Q3771.83,2014.57,3766.33,2023.88Zm108.57,5.81c-.83,1.37-1.7,2.75-2.58,4.16-.77,1.23-1.55,2.46-2.31,3.7L3775,2019.91c1.6-2.83,3.17-5.7,4.72-8.58Zm-66.53-112,111.3,6.57c1.29-6.27,3-12.5,3.88-18.79l-111.77-7.36C3810.84,1904.63,3809.73,1911.15,3808.37,1917.67Zm8.08-13.78,100.62,6.63c-.42,2-.88,4.11-1.37,6.24l-.39,1.74L3815,1912.57C3815.49,1909.73,3816,1906.85,3816.45,1903.89Zm-243.34,305.44,83.55,43q11.19-6.95,21.94-14l-82.73-43.52Q3584.79,2202.14,3573.11,2209.33Zm94.68,29.46c-3.63,2.34-7.41,4.73-11.38,7.22l-72.22-37.14q6.14-3.88,12-7.75Zm-33.92-71.11,90.84,37.72c6.55-5,13.1-10.09,19.33-15.23l-90.14-38.35C3647.43,2157.17,3640.73,2162.45,3633.87,2167.68Zm99.62,24c-3.08,2.44-6.27,4.91-9.61,7.49l-79.19-32.89c3.55-2.78,6.91-5.46,10.12-8.07ZM3701,1600.73l96.35-32.43c-5.33-5.5-11.1-10.9-16.78-16.34l-96.75,31.71Q3692.69,1592.13,3701,1600.73Zm78.16-42.54,1.27,1.22c2.25,2.14,4.54,4.32,6.79,6.52l-84.69,28.5c-2.69-2.75-5.46-5.54-8.37-8.38Zm18.92,196.27,110-13.7c-2.12-6.18-5.42-12.25-7.88-18.41l-109.32,12.84C3793.46,1741.6,3795.9,1748,3798.07,1754.46Zm98.67-26.19c.6,1.36,1.22,2.7,1.82,4s1.21,2.63,1.78,3.91l-98.54,12.27c-1-2.81-2.07-5.69-3.22-8.67ZM2687,2422.8c10.65,1.42,21.17,3.33,31.9,4.56l23.71-63.51c-11.16-1.25-22.28-2.66-33.37-4.16Zm48-54.31-19.75,52.9c-4.79-.62-9.6-1.36-14.27-2.08l-6.62-1,18.54-52.6C2720.66,2366.74,2728,2367.67,2735,2368.49Zm-249.08,14.18c9.94,2.68,19.75,5.55,29.8,8l45.85-58.87q-15.69-3.85-31.21-8Zm66.15-47.56-38.48,49.4c-5.49-1.41-11-2.93-16.33-4.41l-2.1-.58,37.35-49.48C2538.81,2331.73,2545.28,2333.41,2552.07,2335.11Zm798.64-25.73,56.77,55.83c9.52-3.05,18.82-6.35,28.18-9.59l-55.51-56Q3365.56,2304.64,3350.71,2309.38ZM3409,2359,3361,2311.82c5.74-1.88,11.6-3.85,17.68-6l47,47.43C3420.16,2355.2,3414.56,2357.14,3409,2359ZM2295.76,2231.73l-73.89,48q12.08,6.49,24.41,12.74l74.87-47.48Q2308.28,2238.52,2295.76,2231.73ZM2246,2286.15c-4.28-2.18-8.7-4.47-13.32-6.91L2296,2238.1q7,3.77,14.07,7.39ZM3085,2364.47l24.42,63.59c10.72-1.19,21.2-3,31.84-4.44l-22.93-63.19C3107.3,2361.89,3096.19,2363.26,3085,2364.47Zm42.35,55.6c-4.7.71-9.53,1.43-14.35,2l-20.34-53c7-.8,14.26-1.7,22-2.7l19.12,52.69Zm-136-48.31,12.73,64.53c10.9-.54,21.7-1.5,32.55-2.23l-11.39-64.27Q3008.35,2371,2991.37,2371.76Zm33.6,57.65c-5.38.41-10.91.82-16.41,1.15L2998,2376.92c7.8-.4,15.42-.84,22.76-1.33l9.46,53.43ZM2013.7,1785.77l-111.29-6.58c-1.29,6.27-3,12.5-3.89,18.79l111.77,7.36C2011.23,1798.81,2012.34,1792.28,2013.7,1785.77Zm-8.08,13.77L1905,1792.92c.42-2,.88-4.06,1.35-6.16l.42-1.82,100.34,5.93C2006.58,1793.69,2006.09,1796.57,2005.62,1799.54Zm129.71-218.67-97.08-32c-5.6,5.42-11.33,10.78-16.6,16.28l96.68,32.77C2123.79,1592.15,2129.48,1586.49,2135.33,1580.87Zm-103.61-18.14c2.11-2.07,4.26-4.13,6.36-6.15l1.58-1.52,85.38,28.19c-2.87,2.83-5.61,5.59-8.25,8.32ZM2091,1629l-102.27-26c-4.59,5.72-9.49,11.37-13.72,17.15L2077.26,1647Q2083.83,1637.91,2091,1629Zm-106.6-12.07c1.36-1.69,2.74-3.36,4.1-5,.76-.93,1.52-1.85,2.27-2.78l90.7,23.09c-2.13,2.75-4.26,5.57-6.42,8.49Zm136.68,485.79-96.33,32.43c5.34,5.51,11.1,10.91,16.78,16.34l96.74-31.71C2132.34,2114.12,2126.59,2108.44,2121.07,2102.7Zm-78.14,42.54-.74-.7c-2.42-2.32-4.89-4.67-7.33-7l84.68-28.5c2.68,2.75,5.46,5.53,8.37,8.39Zm4-143.2-106.52,20.21c3.23,6,7.35,11.92,10.93,17.89l106.2-19.34C2053.84,2014.58,2050.32,2008.33,2047,2002Zm-95.14,28.47q-1.41-2.19-2.74-4.32l95-18q2.37,4.36,4.82,8.64l-94.78,17.26C1953.35,2032.89,1952.6,2031.7,1951.84,2030.51ZM2024,1949l-110,13.69c2.12,6.18,5.42,12.26,7.89,18.41l109.3-12.84C2028.6,1961.84,2026.17,1955.42,2024,1949Zm-98.65,26.18c-.6-1.34-1.21-2.67-1.81-4s-1.22-2.66-1.8-4l98.53-12.27c1,2.81,2.07,5.69,3.22,8.67Z"/><g class="cls-13"><path class="cls-14" d="M3481.81,1856.28c-1,77.91-49,149.35-128.48,205.31l32.87,15.94c92.27-64.69,137.59-137.11,138.39-221.17Z"/></g><path class="cls-2" d="M3019.61,2201.68c138.62-13.86,265.74-56,358.64-118.67l-32.88-16c-104.44,70.33-259.61,114.8-432.8,114.49-101.73-.19-197.4-15.81-280.36-43l-21.13,21.2C2736.17,2200.67,2881,2215.55,3019.61,2201.68Z"/><path class="cls-3" d="M2339.7,1850.8c-1-181.8,254.4-329.25,569.3-328.68,31.69.06,62.79,1.64,93.11,4.57l7.32-24.39c-108.14-10.65-206.9-5.53-310.26,16-241.36,50.35-403,183.87-402.18,332.27.21,40.08,12.23,79.71,35.72,117.85l39.86-8.31C2351.51,1925.88,2339.91,1889.09,2339.7,1850.8Z"/><path class="cls-11" d="M2376.86,1966.87l-39.87,8.31c51.41,78.84,137.63,138.09,263.32,181l21.14-21.22C2510.38,2096.7,2423.3,2037.47,2376.86,1966.87Z"/><path class="cls-12" d="M3481.76,1849.12l42.79.07c-1.87-82.77-52.73-162.55-143.6-225S3162.69,1519,3021.67,1503.56l-7.32,24.4C3277.19,1556.82,3477.8,1689.75,3481.76,1849.12Z"/><ellipse class="cls-15" cx="2269.7" cy="1923.22" rx="542.43" ry="176.55" transform="translate(-152.37 195.82) rotate(-4.78)"/><ellipse class="cls-16" cx="2749.63" cy="2153.24" rx="325.75" ry="115.63" transform="translate(-382 3699.16) rotate(-64.34)"/><ellipse class="cls-17" cx="3529.1" cy="1817.24" rx="325.75" ry="115.63" transform="translate(-167.77 371.53) rotate(-5.89)"/><ellipse class="cls-18" cx="3016.75" cy="1480.24" rx="325.75" ry="115.63" transform="matrix(0.14, -0.99, 0.99, 0.14, 1114.79, 4250.53)"/><ellipse class="cls-19" cx="3433" cy="1574.05" rx="386.58" ry="176.55" transform="translate(-260.25 784.74) rotate(-12.57)"/><ellipse class="cls-20" cx="3416.07" cy="2112.5" rx="176.55" ry="386.58" transform="translate(-180.18 3901.11) rotate(-58.18)"/><ellipse class="cls-21" cx="2507.52" cy="1559.39" rx="176.55" ry="386.58" transform="translate(-236.34 2650.54) rotate(-53.56)"/><g class="cls-4"><path class="cls-22" d="M3221.67,1666.85l20.62-11.91c-165-92.65-417.26-103.19-600.55-31.34l16.8,13.82C2830.57,1570,3066.62,1579.93,3221.67,1666.85Z"/></g><path class="cls-23" d="M2915.45,1534.26l.16,29.54c117.14,1,224.82,25.43,309.56,65.5l32.76-22.56C3164.26,1562.33,3045.1,1535.32,2915.45,1534.26Zm309.2,88.74c-87.24-40.67-192-63-303.59-64.61l-.1-18.58c118,1.66,233.1,25.64,326,67.86Z"/><path class="cls-24" d="M3127.39,1500.93l47.07-86.08c-11.79-2.4-23.41-5.12-35.35-7.19l-48.87,85.89C3102.77,1495.67,3115.05,1498.35,3127.39,1500.93Zm62.5,15.18,62.4-82.71c-11.29-3.1-22.48-6.37-33.95-9.14l-64.08,82.25C3166.34,1509.38,3178.08,1512.8,3189.89,1516.11ZM2728,1492.9l-49.82-86.08c-11.89,2-23.52,4.71-35.25,7.07l48,86.24C2703.2,1497.62,2715.46,1495,2728,1492.9Zm-63.89,12.72-65-82.49c-11.44,2.75-22.59,6-33.87,9l63.33,82.94C2640.34,1511.83,2652,1508.45,2664.07,1505.62Zm398.45-16,31.22-88.53c-12.16-1.67-24.21-3.57-36.46-4.92l-33.06,88.47C3037.09,1486,3049.79,1487.79,3062.52,1489.6Zm-66.47-7.38,15-90c-12.38-.94-24.73-1.91-37.15-2.51l-16.83,90C2970.1,1480.26,2983.06,1481.19,2996.05,1482.22ZM2861,1479.51l-17.78-90c-12.42.55-24.76,1.48-37.15,2.38l16,90.05C2835,1480.92,2848,1480,2861,1479.51Zm-67.1,4.69-34-88.59c-12.25,1.3-24.29,3.16-36.42,4.8l32.16,88.64C2768.33,1487.28,2781,1485.51,2793.88,1484.2Zm571.82-13-92.36,72.64c10.76,4.25,21.27,8.8,31.67,13.47l90.87-73.27C3385.93,1479.68,3375.92,1475.34,3365.7,1471.24Zm-437.07,7.61-1.41-90.52q-18.7-.28-37.4-.07l-.41,90.51C2902.5,1478.57,2915.54,1478.6,2928.63,1478.85Zm365.51-33.33-78.65,77.88c11.46,3.59,22.65,7.57,33.81,11.59l77.08-78.42C3315.69,1452.79,3305.05,1449,3294.14,1445.52Z"/><path class="cls-25" d="M2996.05,1482.22l15-90c-12.38-.94-24.73-1.91-37.15-2.51l-16.83,90C2970.1,1480.26,2983.06,1481.19,2996.05,1482.22ZM2861,1479.51l-17.78-90c-12.42.55-24.76,1.48-37.15,2.38l16,90.05C2835,1480.92,2848,1480,2861,1479.51Zm504.72-8.27-92.36,72.64c10.76,4.25,21.27,8.8,31.67,13.47l90.87-73.27C3385.93,1479.68,3375.92,1475.34,3365.7,1471.24Z"/><path class="cls-26" d="M3189.89,1516.11l62.4-82.71c-11.29-3.1-22.48-6.37-33.95-9.14l-64.08,82.25C3166.34,1509.38,3178.08,1512.8,3189.89,1516.11Zm-525.82-10.49-65-82.49c-11.44,2.75-22.59,6-33.87,9l63.33,82.94C2640.34,1511.83,2652,1508.45,2664.07,1505.62Zm398.45-16,31.22-88.53c-12.16-1.67-24.21-3.57-36.46-4.92l-33.06,88.47C3037.09,1486,3049.79,1487.79,3062.52,1489.6Z"/><path class="cls-24" d="M3135.1,1280.64c-10.66-1.43-21.17-3.33-31.89-4.55l-23.72,63.49q16.74,1.89,33.37,4.17Zm-48,54.3,19.75-52.89c4.81.62,9.63,1.36,14.33,2.08l6.55,1-18.54,52.59C3101.42,1336.69,3094.11,1335.77,3087.08,1334.94Zm150.34-37.27c-10.35-2.06-20.56-4.45-31-6.31l-35,61.5q16.32,2.88,32.47,6.12ZM3180,1348.84l29.25-51.38c5.08,1,10.17,2,15.12,3.1l4.67,1-28,51.27C3194.16,1351.47,3187.14,1350.14,3180,1348.84Zm-149.66-79c-10.88-.78-21.68-1.77-32.59-2.35l-12,64.49q17,.87,33.94,2.09Zm-38.1,57,10-53.59c5.52.35,11,.78,16.44,1.21l5.26.4-8.89,53.4C3007.69,1327.71,3000.15,1327.25,2992.25,1326.81Zm438,22.88c-9.41-3.26-18.75-6.6-28.3-9.67l-56.16,55.61q14.89,4.78,29.55,9.93ZM3356,1393.2l47.4-46.94c5.66,1.87,11.32,3.83,16.85,5.76l-46.42,47.22C3367.71,1397.12,3361.8,1395.12,3356,1393.2Zm-19.85-72.43c-9.94-2.68-19.74-5.54-29.79-8l-45.86,58.86q15.7,3.86,31.21,8ZM3270,1368.33l38.48-49.4c5.45,1.4,10.9,2.91,16.19,4.37l2.22.62-37.34,49.48C3283.24,1371.7,3276.77,1370,3270,1368.33Zm-439.29-36.66L2818,1267.15c-10.89.53-21.68,1.49-32.54,2.23l11.39,64.26Q2813.73,1332.47,2830.72,1331.67Zm-34-57.62c5.51-.41,11.17-.84,16.81-1.17l10.6,53.63c-7.89.41-15.41.85-22.76,1.33l-9.47-53.43Zm-151.45,77.86-35.68-61.64c-10.42,1.83-20.58,4.19-30.93,6.2l34.2,61.44Q2629,1354.73,2645.25,1351.91ZM2592,1299.34c4.85-1,9.82-2,14.8-3l29.82,51.52c-7.06,1.26-14,2.57-20.89,3.9l-28.61-51.41ZM2737,1339l-24.41-63.59c-10.7,1.19-21.19,3-31.83,4.43l22.93,63.2C2714.78,1341.55,2725.88,1340.18,2737,1339Zm-42.33-55.61c4.7-.7,9.52-1.42,14.33-2l20.34,53c-7,.8-14.27,1.69-22,2.69l-19.12-52.69ZM2925.26,1330l-1-64.71q-9.87-.11-19.72-.11-6.54,0-13.07,0l-.31,64.71q7.13-.07,14.26-.07Q2915.35,1329.89,2925.26,1330Zm-28.34-59.32,7.62,0q7.15,0,14.33.06l.82,53.74q-7.12-.07-14.27-.07l-8.76,0Z"/><path class="cls-24" d="M3030.35,1269.82c-10.88-.78-21.68-1.77-32.59-2.35l-12,64.49q17,.87,33.94,2.09Zm-38.1,57,10-53.59c5.52.35,11,.78,16.44,1.21l5.26.4-8.89,53.4C3007.69,1327.71,3000.15,1327.25,2992.25,1326.81Zm438,22.88c-9.41-3.26-18.75-6.6-28.3-9.67l-56.16,55.61q14.89,4.78,29.55,9.93ZM3356,1393.2l47.4-46.94c5.66,1.87,11.32,3.83,16.85,5.76l-46.42,47.22C3367.71,1397.12,3361.8,1395.12,3356,1393.2Zm-19.85-72.43c-9.94-2.68-19.74-5.54-29.79-8l-45.86,58.86q15.7,3.86,31.21,8ZM3270,1368.33l38.48-49.4c5.45,1.4,10.9,2.91,16.19,4.37l2.22.62-37.34,49.48C3283.24,1371.7,3276.77,1370,3270,1368.33ZM2737,1339l-24.41-63.59c-10.7,1.19-21.19,3-31.83,4.43l22.93,63.2C2714.78,1341.55,2725.88,1340.18,2737,1339Zm-42.33-55.61c4.7-.7,9.52-1.42,14.33-2l20.34,53c-7,.8-14.27,1.69-22,2.69l-19.12-52.69Z"/><path class="cls-25" d="M3341.76,1599.8c-86.72-49.17-198.3-82.91-320.09-96.24l-7.32,24.4c121.51,13.34,229.67,49,311.3,99.12Q3333.84,1613.59,3341.76,1599.8Z"/><g class="cls-27"><path class="cls-28" d="M2524.48,1420.65c.14,3.77.4,7.49.57,11.23,116-35,245.8-53.68,380.77-53.68,182,0,355.07,33.72,498.15,96q2.15-5,4.26-10.1c-144.44-62.8-319-96.81-502.41-96.81C2770.8,1367.25,2640.85,1385.8,2524.48,1420.65Z"/><path class="cls-28" d="M2524,1400.43c0,1.89.05,3.78.1,5.67,117-33.49,246.76-51.31,381.46-51.31,185,0,361.21,33.38,508.4,95.07.68-1.69,1.38-3.37,2.06-5.07-147.85-62-324.78-95.48-510.46-95.48C2770.94,1349.31,2641.17,1367.06,2524,1400.43Z"/></g><path class="cls-25" d="M2540.65,1567.93c1.82,9.68,3.74,19.33,5.88,28.84,98.47-46.85,224.78-74.9,362.46-74.65,31.7.06,62.8,1.64,93.12,4.58l7.32-24.4c-108.14-10.65-206.9-5.53-310.27,16C2641.35,1530.38,2588.17,1547.26,2540.65,1567.93Z"/><path class="cls-25" d="M2559.38,1646.53c88.39-50.51,209.51-82,343.44-82.74l-.16-29.54c-134.85.7-257.94,29.6-352.6,77,.45,1.82.88,3.64,1.34,5.44,93.44-46.88,214.69-75.43,345.81-76.87l.1,18.59c-130.56,1.59-250.71,32.68-339.42,83C2558.38,1643.07,2558.87,1644.81,2559.38,1646.53Z"/><circle class="cls-29" cx="3396.93" cy="305.3" r="30.8"/><circle class="cls-30" cx="3137.36" cy="377.9" r="61.6"/><circle class="cls-31" cx="3489.51" cy="609.93" r="58.11" transform="translate(-15.63 97.37) rotate(-1.6)"/><circle class="cls-32" cx="3285.2" cy="866.6" r="36.96"/><circle class="cls-33" cx="2583.81" cy="235.49" r="30.8"/><circle class="cls-34" cx="3005.95" cy="121.24" r="21.56"/><circle class="cls-35" cx="3384.79" cy="1111.97" r="21.56"/><circle class="cls-36" cx="2477.04" cy="642.05" r="61.6"/><circle class="cls-37" cx="2386.69" cy="1003.44" r="36.96" transform="translate(992.26 3184.89) rotate(-80.22)"/><circle class="cls-38" cx="2229.79" cy="523.69" r="30.8"/></g></g></svg>