<svg xmlns="http://www.w3.org/2000/svg" xmlns:xlink="http://www.w3.org/1999/xlink" viewBox="0 0 965.01 1983.12"><defs><style>.cls-1{isolation:isolate;}.cls-2{fill:url(#New_Gradient_Swatch_copy_13);}.cls-3{fill:url(#New_Gradient_Swatch_copy_13-2);}.cls-4{fill:url(#linear-gradient);}.cls-5{fill:url(#linear-gradient-2);}.cls-6{fill:#c7bcd6;}.cls-10,.cls-6{mix-blend-mode:multiply;opacity:0.5;}.cls-7{fill:url(#linear-gradient-3);}.cls-8{fill:url(#linear-gradient-4);}.cls-9{opacity:0.3;fill:url(#linear-gradient-5);}.cls-10{fill:url(#radial-gradient);}.cls-11,.cls-17,.cls-18,.cls-21,.cls-24{mix-blend-mode:color-dodge;}.cls-11{opacity:0.7;fill:url(#radial-gradient-2);}.cls-12{fill:url(#linear-gradient-6);}.cls-13{fill:url(#linear-gradient-7);}.cls-14{fill:url(#New_Gradient_Swatch_copy_7);}.cls-15{mix-blend-mode:screen;fill:url(#White_Black_1);}.cls-16{fill:url(#linear-gradient-8);}.cls-17{fill:url(#Radial_Gradient_1);}.cls-18{fill:url(#radial-gradient-3);}.cls-19{fill:url(#linear-gradient-9);}.cls-20{fill:url(#New_Gradient_Swatch_copy_13-3);}.cls-21{fill:url(#Radial_Gradient_1-2);}.cls-22{fill:url(#linear-gradient-10);}.cls-23{fill:url(#New_Gradient_Swatch_copy_13-4);}.cls-24{fill:url(#Radial_Gradient_1-3);}</style><linearGradient id="New_Gradient_Swatch_copy_13" x1="1467.91" y1="1440.41" x2="2085.68" y2="1255.44" gradientUnits="userSpaceOnUse"><stop offset="0.04" stop-color="#6b24d6"/><stop offset="0.29" stop-color="#7733dc"/><stop offset="0.79" stop-color="#975ced"/><stop offset="1" stop-color="#a56ef4"/></linearGradient><linearGradient id="New_Gradient_Swatch_copy_13-2" x1="-749.92" y1="1513.45" x2="-9.75" y2="1347.53" gradientTransform="matrix(-1, 0, 0, 1, 388.4, 0)" xlink:href="#New_Gradient_Swatch_copy_13"/><linearGradient id="linear-gradient" x1="1024.99" y1="1902.3" x2="1237.22" y2="1902.3" gradientUnits="userSpaceOnUse"><stop offset="0.02" stop-color="#45108a"/><stop offset="0.29" stop-color="#3d065f"/><stop offset="1" stop-color="#12054e"/><stop offset="1" stop-color="#10054d"/></linearGradient><linearGradient id="linear-gradient-2" x1="876.7" y1="1738.09" x2="1383.62" y2="1738.09" gradientUnits="userSpaceOnUse"><stop offset="0" stop-color="#5c1ccc"/><stop offset="0.03" stop-color="#6323d0"/><stop offset="0.07" stop-color="#7538da"/><stop offset="0.12" stop-color="#9259ea"/><stop offset="0.14" stop-color="#a56ef4"/><stop offset="0.23" stop-color="#c994ff"/><stop offset="0.28" stop-color="#ae7af0"/><stop offset="0.38" stop-color="#7945d1"/><stop offset="0.54" stop-color="#4916a1"/><stop offset="0.62" stop-color="#4b17a4"/><stop offset="0.69" stop-color="#521aaf"/><stop offset="0.76" stop-color="#5d1ec1"/><stop offset="0.82" stop-color="#6b24d6"/><stop offset="0.94" stop-color="#5b1dbd"/><stop offset="1" stop-color="#531ab0"/></linearGradient><linearGradient id="linear-gradient-3" x1="726.35" y1="948.95" x2="1532.06" y2="948.95" gradientUnits="userSpaceOnUse"><stop offset="0.01" stop-color="#c1a1d5"/><stop offset="0.04" stop-color="#c8abda"/><stop offset="0.1" stop-color="#dac6e6"/><stop offset="0.18" stop-color="#f7f2f9"/><stop offset="0.2" stop-color="#fff"/><stop offset="0.23" stop-color="#f9f5fb"/><stop offset="0.29" stop-color="#e9dbf2"/><stop offset="0.36" stop-color="#d1b4e3"/><stop offset="0.43" stop-color="#b395d6"/><stop offset="0.49" stop-color="#9c7dcb"/><stop offset="0.56" stop-color="#8e6ec5"/><stop offset="0.61" stop-color="#8969c3"/><stop offset="0.76" stop-color="#9471c6"/><stop offset="1" stop-color="#b086cc"/></linearGradient><linearGradient id="linear-gradient-4" x1="977.34" y1="275.23" x2="1402.11" y2="447.28" gradientUnits="userSpaceOnUse"><stop offset="0" stop-color="#5c1ccc"/><stop offset="0.04" stop-color="#6323d0"/><stop offset="0.09" stop-color="#7538da"/><stop offset="0.16" stop-color="#9259ea"/><stop offset="0.19" stop-color="#a56ef4"/><stop offset="0.34" stop-color="#7945d1"/><stop offset="0.44" stop-color="#6d37c7"/><stop offset="0.6" stop-color="#5e27ba"/><stop offset="0.77" stop-color="#561db2"/><stop offset="1" stop-color="#531ab0"/></linearGradient><linearGradient id="linear-gradient-5" x1="1318.24" y1="253.27" x2="769.68" y2="521.84" xlink:href="#linear-gradient-4"/><radialGradient id="radial-gradient" cx="1131.78" cy="-2016.53" r="571.7" gradientTransform="translate(0 4175.4) scale(1 1.6)" gradientUnits="userSpaceOnUse"><stop offset="0.53" stop-color="#fff"/><stop offset="0.6" stop-color="#fbfafd"/><stop offset="0.68" stop-color="#efecf6"/><stop offset="0.76" stop-color="#dcd5ea"/><stop offset="0.85" stop-color="#c0b4da"/><stop offset="0.95" stop-color="#9e8bc5"/><stop offset="1" stop-color="#8770b8"/></radialGradient><radialGradient id="radial-gradient-2" cx="14896.58" cy="11403.73" r="683.71" gradientTransform="matrix(-0.22, 0.06, -0.24, -0.97, 7462.2, 11101.07)" gradientUnits="userSpaceOnUse"><stop offset="0" stop-color="#972a74"/><stop offset="0.02" stop-color="#8c276c"/><stop offset="0.11" stop-color="#671d4f"/><stop offset="0.21" stop-color="#471437"/><stop offset="0.32" stop-color="#2d0d23"/><stop offset="0.43" stop-color="#190713"/><stop offset="0.57" stop-color="#0b0308"/><stop offset="0.73" stop-color="#020102"/><stop offset="1"/></radialGradient><linearGradient id="linear-gradient-6" x1="833.8" y1="927.53" x2="1052.83" y2="1306.91" xlink:href="#linear-gradient-2"/><linearGradient id="linear-gradient-7" x1="744.37" y1="1143.33" x2="1049.83" y2="1143.33" gradientTransform="translate(699.66 -296.46) rotate(30.31)" gradientUnits="userSpaceOnUse"><stop offset="0.04" stop-color="#a56ef4"/><stop offset="0.36" stop-color="#c994ff"/><stop offset="0.54" stop-color="#b379f5"/><stop offset="0.91" stop-color="#7935dc"/><stop offset="1" stop-color="#6b24d6"/></linearGradient><linearGradient id="New_Gradient_Swatch_copy_7" x1="981.57" y1="1289.64" x2="807.9" y2="988.84" gradientTransform="translate(699.66 -296.46) rotate(30.31)" gradientUnits="userSpaceOnUse"><stop offset="0.04" stop-color="#138bbd"/><stop offset="0.23" stop-color="#169ac7"/><stop offset="0.59" stop-color="#1fc3df"/><stop offset="1" stop-color="#2af6ff"/></linearGradient><linearGradient id="White_Black_1" x1="776.89" y1="964.78" x2="937.02" y2="1165.8" gradientUnits="userSpaceOnUse"><stop offset="0" stop-color="#fff"/><stop offset="1"/></linearGradient><linearGradient id="linear-gradient-8" x1="948.75" y1="1313.87" x2="775.97" y2="1014.61" gradientUnits="userSpaceOnUse"><stop offset="0" stop-color="#5c1ccc"/><stop offset="0.23" stop-color="#ba85ff"/><stop offset="0.38" stop-color="#7945d1"/><stop offset="0.54" stop-color="#4916a1"/><stop offset="0.61" stop-color="#4b17a4"/><stop offset="0.68" stop-color="#521aaf"/><stop offset="0.74" stop-color="#5d1ec1"/><stop offset="0.79" stop-color="#6b24d6"/><stop offset="0.93" stop-color="#5b1dbd"/><stop offset="1" stop-color="#531ab0"/></linearGradient><radialGradient id="Radial_Gradient_1" cx="927.12" cy="1139.11" r="163.9" xlink:href="#White_Black_1"/><radialGradient id="radial-gradient-3" cx="-12701.62" cy="9995.38" r="641.4" gradientTransform="matrix(0.22, 0.06, 0.24, -0.97, 1279.71, 11101.07)" gradientUnits="userSpaceOnUse"><stop offset="0" stop-color="#972a74"/><stop offset="0.02" stop-color="#8c276c" stop-opacity="0.93"/><stop offset="0.11" stop-color="#671d4f" stop-opacity="0.68"/><stop offset="0.21" stop-color="#471437" stop-opacity="0.47"/><stop offset="0.32" stop-color="#2d0d23" stop-opacity="0.3"/><stop offset="0.43" stop-color="#190713" stop-opacity="0.17"/><stop offset="0.57" stop-color="#0b0308" stop-opacity="0.07"/><stop offset="0.73" stop-color="#020102" stop-opacity="0.02"/><stop offset="1" stop-opacity="0"/></radialGradient><linearGradient id="linear-gradient-9" x1="704.72" y1="2000.07" x2="914.92" y2="1356.73" gradientUnits="userSpaceOnUse"><stop offset="0.2" stop-color="#7734dc"/><stop offset="0.39" stop-color="#8c4fe7"/><stop offset="0.59" stop-color="#a56ef4"/><stop offset="0.67" stop-color="#ba8aff"/><stop offset="0.8" stop-color="#a067f1"/><stop offset="1" stop-color="#9155ea"/></linearGradient><linearGradient id="New_Gradient_Swatch_copy_13-3" x1="699.64" y1="1782.19" x2="1421.24" y2="1566.12" xlink:href="#New_Gradient_Swatch_copy_13"/><radialGradient id="Radial_Gradient_1-2" cx="503.64" cy="1123.22" r="270.37" gradientTransform="translate(488.23 689.26) scale(0.89)" xlink:href="#White_Black_1"/><linearGradient id="linear-gradient-10" x1="1494.07" y1="1796.56" x2="1379.42" y2="1457.38" gradientUnits="userSpaceOnUse"><stop offset="0.04" stop-color="#6b24d6"/><stop offset="0.19" stop-color="#7733dc"/><stop offset="0.2" stop-color="#7734dc"/><stop offset="0.39" stop-color="#8c4fe7"/><stop offset="0.59" stop-color="#a56ef4"/><stop offset="0.67" stop-color="#ba8aff"/><stop offset="0.8" stop-color="#a067f1"/><stop offset="1" stop-color="#9155ea"/></linearGradient><linearGradient id="New_Gradient_Swatch_copy_13-4" x1="-1519.17" y1="1873.75" x2="-392.81" y2="1621.26" gradientTransform="matrix(-1, 0, 0, 1, 489.01, 0)" xlink:href="#New_Gradient_Swatch_copy_13"/><radialGradient id="Radial_Gradient_1-3" cx="1352.12" cy="1656.3" r="240.44" xlink:href="#White_Black_1"/></defs><g class="cls-1"><g id="_Layer_" data-name="&lt;Layer&gt;"><path class="cls-2" d="M1387.84,1518.05l226.45,120.64V1486c0-21.4-4.06-40.21-11.9-55.12l-97.81-186.07c-21-40-66.61-47.16-116.74-18.22h0Z" transform="translate(-649.28 -89.43)"/><path class="cls-3" d="M875.73,1518.05,649.28,1638.69V1486c0-21.4,4.06-40.21,11.89-55.12L759,1244.78c21.06-40,66.62-47.16,116.75-18.22h0Z" transform="translate(-649.28 -89.43)"/><path class="cls-4" d="M1239.61,1855.26H1024v30.42h0c0,.29,0,.58,0,.87,0,34.68,48.27,62.79,107.82,62.79s107.83-28.11,107.83-62.79c0-.29,0-.58,0-.87h0Z" transform="translate(-649.28 -89.43)"/><path class="cls-5" d="M1389.32,1585.55H874.25v153h.09c0,.69-.09,1.37-.09,2.07,0,82.82,115.3,150,257.53,150s257.54-67.15,257.54-150c0-.7-.08-1.38-.09-2.07h.09Z" transform="translate(-649.28 -89.43)"/><path class="cls-6" d="M1389.32,1590.93H874.25v122h.09c0,.55-.09,1.09-.09,1.64,0,66,115.3,119.58,257.53,119.58s257.54-53.54,257.54-119.58c0-.55-.08-1.09-.09-1.64h.09Z" transform="translate(-649.28 -89.43)"/><path class="cls-7" d="M1534.44,1079c26.1-218.28-24.45-440.33-149.29-621.28q-7.86-11.39-16-22.59L1131.78,110,894.45,435.14q-8.18,11.21-16,22.59C753.57,638.68,703,860.73,729.12,1079l60.61,506.91h.12c0,.92-.12,1.83-.12,2.75,0,110,153.14,199.19,342,199.19s342.06-89.18,342.06-199.19c0-.92-.1-1.83-.13-2.75h.13Z" transform="translate(-649.28 -89.43)"/><path class="cls-8" d="M1369.11,435.14,1131.78,110,894.45,435.14c-1.33,1.82-2.58,3.69-3.9,5.52C931.61,494.47,1024.14,532,1131.78,532S1332,494.47,1373,440.66C1371.7,438.83,1370.44,437,1369.11,435.14Z" transform="translate(-649.28 -89.43)"/><path class="cls-9" d="M1369.11,435.14,1131.78,110,894.45,435.14c-1.33,1.82-2.58,3.69-3.9,5.52C931.61,494.47,1024.14,532,1131.78,532S1332,494.47,1373,440.66C1371.7,438.83,1370.44,437,1369.11,435.14Z" transform="translate(-649.28 -89.43)"/><path class="cls-10" d="M1534.44,1079c26.1-218.28-24.45-440.33-149.29-621.28q-7.86-11.39-16-22.59L1131.78,110,894.45,435.14q-8.18,11.21-16,22.59C753.57,638.68,703,860.73,729.12,1079l60.61,506.91h.12c0,.92-.12,1.83-.12,2.75,0,110,153.14,199.19,342,199.19s342.06-89.18,342.06-199.19c0-.92-.1-1.83-.13-2.75h.13Z" transform="translate(-649.28 -89.43)"/><path class="cls-11" d="M1292.52,797.3c-68-273.24-208.9-587.91-175.44-603.1,58.94-26.75,305.15,279.74,373.15,553,59.86,240.52-7.66,839.4-69.9,854.89S1352.39,1037.82,1292.52,797.3Z" transform="translate(-649.28 -89.43)"/><path class="cls-12" d="M1080,1213.68c0,47.28-16.32,80.77-42.84,97-.8.49-25.49,16.15-26.3,16.61-27.6,15.43-10-19.59-51.86-43.79-84.35-48.7-152.73-166.64-152.73-263.43,0-47.87-44.25-48.25-17.15-64.23.76-.45,30.76-17,31.53-17.37,27.52-14.9,65.14-12.16,106.62,11.79C1011.59,998.94,1080,1116.89,1080,1213.68Z" transform="translate(-649.28 -89.43)"/><ellipse class="cls-13" cx="897.1" cy="1143.33" rx="124.31" ry="215.32" transform="translate(-1103.67 519.62) rotate(-30.31)"/><ellipse class="cls-14" cx="897.1" cy="1143.33" rx="100.95" ry="174.85" transform="translate(-1103.67 519.62) rotate(-30.31)"/><path class="cls-15" d="M995.33,1175.72c0,59.15-41.79,83-93.33,53.21s-93.33-101.83-93.33-161,41.78-83,93.33-53.21S995.33,1116.57,995.33,1175.72Z" transform="translate(-649.28 -89.43)"/><path class="cls-16" d="M921.49,1275.42c-68.5-39.55-124-135.33-124-213.92,0-36.24,11.82-62.46,31.25-76.37-33.53,6.12-55.65,37-55.65,86.6,0,78.6,55.53,174.37,124,213.92,36.92,21.31,70,21.91,92.77,5.65C970.27,1294.88,946.77,1290,921.49,1275.42Z" transform="translate(-649.28 -89.43)"/><path class="cls-17" d="M901.58,964.2c-40.43-23.35-82.27-21.79-101.65-12.62,25.47-7.12,61.47-2.82,95.7,16.95,84.36,48.7,152.74,166.64,152.74,263.43,0,50.4-23,86.09-52.64,100.92,31.13-11.51,58.58-47.73,58.58-105.24C1054.31,1130.84,985.93,1012.9,901.58,964.2Z" transform="translate(-649.28 -89.43)"/><path class="cls-18" d="M988,815.38c81.64-328,250.79-705.77,210.61-724-70.75-32.11-349.11,338.83-430.75,666.85C696,1047,730.05,1386.51,804.76,1405.11S916.16,1104.13,988,815.38Z" transform="translate(-649.28 -89.43)"/><path class="cls-19" d="M878.24,1727.4,698,2072.55,661.53,2051V1904.9c0-20.49,3.89-43,11.39-65.9l93.6-286.15c20.14-61.58,63.75-118.73,111.72-146.43h0l35,21.18Z" transform="translate(-649.28 -89.43)"/><path class="cls-20" d="M914.69,1748.92,698,2072.55V1926.41c0-20.49,3.89-43,11.38-65.89L803,1574.37c20.14-61.59,63.74-118.74,111.71-146.43h0Z" transform="translate(-649.28 -89.43)"/><path class="cls-21" d="M701.18,1930.39c0-20.49,3.88-43,11.38-65.89l93.6-286.15c19.25-58.84,59.92-113.57,105.35-142.49v-8.72h0c-48,27.7-91.57,84.85-111.72,146.43l-93.6,286.15c-7.5,22.92-11.38,45.41-11.38,65.9v146.14l6.37-9.52Z" transform="translate(-649.28 -89.43)"/><path class="cls-22" d="M1385.33,1727.4l180.24,345.15L1602,2051V1904.89c0-20.48-3.88-43-11.38-65.89l-93.6-286.15c-20.15-61.58-63.75-118.73-111.72-146.43h0l-35,21.18Z" transform="translate(-649.28 -89.43)"/><path class="cls-23" d="M1348.87,1748.92l216.7,323.63V1926.41c0-20.49-3.88-43-11.38-65.89l-93.6-286.15c-20.15-61.59-63.75-118.74-111.72-146.43h0Z" transform="translate(-649.28 -89.43)"/><path class="cls-24" d="M1559,1860.51l-93.6-286.14c-20.15-61.59-63.75-118.74-111.72-146.43h0v1.85c43.4,29.66,81.83,82.52,100.37,139.2l93.6,286.15c7.5,22.92,11.39,45.41,11.39,65.9V2055.6l11.34,17V1926.41C1570.35,1905.92,1566.47,1883.44,1559,1860.51Z" transform="translate(-649.28 -89.43)"/></g></g></svg>