<svg xmlns="http://www.w3.org/2000/svg" xmlns:xlink="http://www.w3.org/1999/xlink" viewBox="0 0 2164.65 2303.45"><defs><style>.cls-1{isolation:isolate;}.cls-10,.cls-11,.cls-12,.cls-14,.cls-2,.cls-3,.cls-5,.cls-6,.cls-7,.cls-8,.cls-9{fill:#113a39;}.cls-10,.cls-11,.cls-12,.cls-13,.cls-2,.cls-23,.cls-24,.cls-25,.cls-26,.cls-27,.cls-3,.cls-4,.cls-8,.cls-9{mix-blend-mode:screen;}.cls-2,.cls-23,.cls-6{opacity:0.6;}.cls-18,.cls-20,.cls-26,.cls-3{opacity:0.3;}.cls-22,.cls-5,.cls-9{opacity:0.8;}.cls-7,.cls-8{opacity:0.4;}.cls-11,.cls-13,.cls-24{opacity:0.2;}.cls-12,.cls-25,.cls-27{opacity:0.5;}.cls-15,.cls-16,.cls-17,.cls-18,.cls-19,.cls-20,.cls-21{mix-blend-mode:color-dodge;}.cls-15{opacity:0.7;fill:url(#radial-gradient);}.cls-16,.cls-21{opacity:0.15;}.cls-16{fill:url(#radial-gradient-2);}.cls-17,.cls-19{opacity:0.1;}.cls-17{fill:url(#radial-gradient-3);}.cls-18{fill:url(#radial-gradient-4);}.cls-19{fill:url(#radial-gradient-5);}.cls-20{fill:url(#radial-gradient-6);}.cls-21{fill:url(#radial-gradient-7);}.cls-22,.cls-23,.cls-24,.cls-25,.cls-26,.cls-28{fill:#27043d;}</style><radialGradient id="radial-gradient" cx="3752.61" cy="960.57" r="178.01" gradientTransform="matrix(2.78, 0.11, -0.2, 1.52, -9712.4, -611.32)" gradientUnits="userSpaceOnUse"><stop offset="0" stop-color="#43e8e1"/><stop offset="0.14" stop-color="#34b5b0" stop-opacity="0.78"/><stop offset="0.3" stop-color="#257f7b" stop-opacity="0.55"/><stop offset="0.46" stop-color="#17514f" stop-opacity="0.35"/><stop offset="0.62" stop-color="#0d2e2d" stop-opacity="0.2"/><stop offset="0.76" stop-color="#061514" stop-opacity="0.09"/><stop offset="0.89" stop-color="#020505" stop-opacity="0.02"/><stop offset="1" stop-opacity="0"/></radialGradient><radialGradient id="radial-gradient-2" cx="5995.73" cy="-4066.58" r="178.01" gradientTransform="matrix(2.66, 0.07, -0.29, 0.62, -16180.46, 3748.14)" xlink:href="#radial-gradient"/><radialGradient id="radial-gradient-3" cx="7685.43" cy="11954.52" r="178" gradientTransform="matrix(-1.67, -0.1, 0.18, -0.99, 12413.57, 13743.63)" xlink:href="#radial-gradient"/><radialGradient id="radial-gradient-4" cx="3743.37" cy="13783.73" r="178.02" gradientTransform="matrix(-2.82, -0.02, 0.1, -0.59, 10384.68, 8832.14)" xlink:href="#radial-gradient"/><radialGradient id="radial-gradient-5" cx="3903.87" cy="151.74" r="178.01" gradientTransform="matrix(2.01, 0.45, -0.67, 1.36, -6154.97, -1247.16)" xlink:href="#radial-gradient"/><radialGradient id="radial-gradient-6" cx="2906.05" cy="4441.28" r="178.01" gradientTransform="matrix(0.38, 2.41, -1.13, 0.81, 5473.8, -9060.01)" xlink:href="#radial-gradient"/><radialGradient id="radial-gradient-7" cx="2373.95" cy="5034.72" r="178.01" gradientTransform="matrix(0.34, 2.53, -1.09, 0.79, 5424.38, -9298.13)" xlink:href="#radial-gradient"/></defs><g class="cls-1"><g id="_Layer_" data-name="&lt;Layer&gt;"><path class="cls-2" d="M1112.18,1942c-211.08,0-409.82-81.54-559.61-229.6-150.22-148.48-233-345.8-233-555.6,0-207.95,81.5-403,229.47-549.29,147.55-145.84,344-226.16,553.23-226.16,211.08,0,409.83,81.54,559.62,229.6,150.21,148.48,232.94,345.79,232.94,555.6,0,208-81.49,403-229.47,549.29C1517.86,1861.7,1321.39,1942,1112.18,1942Zm-9.86-1552.14c-208.35,0-403.94,79.91-550.74,225-146.37,144.68-227,337.14-227,541.92,0,206.64,81.85,401.34,230.47,548.24,149,147.32,346.9,228.45,557.12,228.45,208.35,0,403.94-79.91,550.75-225,146.37-144.68,227-337.14,227-541.92,0-206.64-81.85-401.34-230.46-548.24C1510.4,471,1312.54,389.88,1102.32,389.88Z"/><path class="cls-3" d="M1112,1914.17c-202.79,0-393.77-78.38-537.74-220.69C429.39,1550.31,349.62,1359.79,349.62,1157c0-201,78.59-389.36,221.28-530.4,141.82-140.19,330.63-217.39,531.62-217.39,202.8,0,393.78,78.36,537.75,220.68,144.84,143.16,224.61,333.68,224.61,536.46,0,201-78.58,389.36-221.27,530.4C1501.78,1837,1313,1914.17,1112,1914.17Zm-9.45-1487.92c-199.28,0-386.32,76.39-526.65,215.11C436.38,779.23,359.56,962.36,359.56,1157c0,196.44,78,381.71,219.64,521.71,142.49,140.84,331.7,218.41,532.77,218.41,199.29,0,386.33-76.39,526.67-215.12,139.48-137.87,216.3-321,216.3-515.65,0-196.44-78-381.72-219.64-521.72C1492.81,503.81,1303.6,426.25,1102.52,426.25Z"/><g class="cls-4"><path class="cls-5" d="M821,1444.65C661.9,1287.4,661.09,1033.23,819.19,877a404.37,404.37,0,0,1,49.42-41.53L853.37,814a428.84,428.84,0,0,0-52.9,44.4c-168.14,166.19-167.28,437.45,1.91,604.68a434.14,434.14,0,0,0,117.88,82.89l11-23.54A409.08,409.08,0,0,1,821,1444.65Z"/><path class="cls-6" d="M1511.06,1121.91l26.23-2.19a426.38,426.38,0,0,0-121.22-255.47l-18.71,18.49C1463.86,950.25,1501.79,1034.93,1511.06,1121.91Z"/><path class="cls-5" d="M1389.06,874.56l18.71-18.49C1258.08,712.16,1029.23,695.79,863,807.39l15.23,21.46C1034.26,724.18,1248.4,739.56,1389.06,874.56Z"/><path class="cls-7" d="M1538.27,1131.24l-26.21,2.18c8.68,112.37-30.12,227.38-116.75,313a402.05,402.05,0,0,1-176.09,101.79l6.88,25.11a427.5,427.5,0,0,0,188-108.4C1506.33,1373.8,1547.59,1251.08,1538.27,1131.24Z"/><path class="cls-6" d="M941.91,1527.33l-11,23.53a440.36,440.36,0,0,0,283.95,25.44l-6.87-25.1A412.52,412.52,0,0,1,941.91,1527.33Z"/></g><path class="cls-8" d="M1099.65,668.61c-240.82,2.13-440.48,173.81-482.86,400.21l45.72,8.11C701.12,872,881.82,716.68,1099.8,714.49ZM659.07,1067.76l-35.57-6.31c46-219.7,242.11-380,471.21-384.26l.09,28.86C882.88,710.49,701.12,861.48,659.07,1067.76Z"/><path class="cls-2" d="M1111.26,668.64l.14,45.87a456.14,456.14,0,0,1,280.84,101.73l29.72-35A502.9,502.9,0,0,0,1111.26,668.64Zm280.51,137.82c-79.15-63.17-174.21-97.8-275.42-100.36l-.09-28.86A503,503,0,0,1,1412,782.64Z"/><path class="cls-9" d="M1430.8,788.68l-29.7,35c96.67,82.39,158.27,204,158.7,339.34a438.4,438.4,0,0,1-57.26,218.43l40.25,23a483.38,483.38,0,0,0,63.42-241.34C1605.74,1013.75,1537.63,879.52,1430.8,788.68Zm110.59,606.07-29.89-17.13A452.83,452.83,0,0,0,1564.77,1163c-.41-130.08-56.4-253.57-154-340.39l20.41-24.06c107.67,92.82,169.6,225.54,170,364.69A473.82,473.82,0,0,1,1541.39,1394.75Z"/><path class="cls-10" d="M1257.69,1584.33a453.61,453.61,0,0,1-147.56,24.59h-1.42c-249.52-.77-453.15-202.05-453.93-448.68a443.25,443.25,0,0,1,5.72-72l-45.72-8.11a487.4,487.4,0,0,0-6.41,80c.86,271.94,225.37,493.85,500.48,494.7h1.57a500.29,500.29,0,0,0,163.28-27.31Zm-148.83,62c-272.38-.84-494.68-219-495.52-486.23a475.42,475.42,0,0,1,5.15-70.73l35.76,6.34a456.14,456.14,0,0,0-4.44,64.62c.79,251.3,206.65,456.37,458.89,457.15h1.43a456.69,456.69,0,0,0,145.19-23.62l10.29,27.73a497.23,497.23,0,0,1-155.19,24.75Z"/><path class="cls-2" d="M1496.79,1391.4a449.76,449.76,0,0,1-228.2,189.06l16,43.16A495.78,495.78,0,0,0,1537,1414.45Zm-220.21,194.73a455.81,455.81,0,0,0,221.48-185L1527.6,1418c-56.38,89.07-141.35,158.34-240.67,196Z"/><path class="cls-11" d="M1303.53,616.86l42.71-133.7c-10.7-3.72-21.25-8-32.08-11.17L1269.83,605.4C1281.19,608.7,1292.33,612.86,1303.53,616.86Zm-528,64.67L691,568.17c-9.24,6.32-18.28,13-27.27,19.77l83.17,114.33C756.32,695.08,765.81,688.07,775.53,681.53Zm584.7-41.09L1416.84,512c-10.25-4.82-20.39-9.89-30.8-14.2l-58.13,127.75C1338.86,630,1349.51,635.31,1360.23,640.44Zm209.57,168c7.33,9.33,14.48,18.75,21.16,28.4L1705.11,754c-6.44-9.17-13.27-18.15-20.18-27.06Zm-40.23-46.07q12.45,12.82,24,26.15L1658.2,694.3q-11.07-12.67-22.83-24.95Zm50.54-145.23-95.29,103.47q13.5,11.35,26.45,23.67l94.08-104.57Q1592.93,628.07,1580.11,617.11ZM941.17,604.39,896,470.7c-10.79,3.15-21.33,7.31-32,11l43.54,134C918.7,611.72,929.83,607.61,941.17,604.39Zm804.34,213.77c-5.43-9.79-11.42-19.33-17.34-28.9l-123.23,69.11c6.3,10,12.56,20,18.2,30.31Zm-862.31-194L824.27,496c-10.39,4.27-20.5,9.27-30.73,14L851,638.86C861.67,633.8,872.29,628.54,883.2,624.15Zm361.48-24.88L1273,461.76c-11-2.59-22-5.54-33.07-7.64l-30,137.41C1221.61,593.65,1233.13,596.46,1244.68,599.27ZM827.82,650l-72.13-121.4c-9.84,5.32-19.48,11.17-29.14,17l70.7,122.21C807.36,661.68,817.45,655.55,827.82,650Zm356.56-62.24L1198,448c-11.23-1.45-22.44-2.95-33.71-3.9L1149,583.86C1160.83,584.76,1172.59,586.2,1184.38,587.8Zm-122.54-4.21-16.12-139.84c-11.28.86-22.47,2.29-33.71,3.68l14.5,139.88C1038.26,585.78,1050,584.41,1061.84,583.59ZM1001,590.88,970.11,453.29c-11.1,2-22,4.91-33,7.45l29.18,137.67C977.79,595.67,989.31,592.92,1001,590.88Zm518.76-20.13-83.8,112.83c9.76,6.59,19.3,13.66,28.74,20.91l82.43-113.8C1538.08,583.85,1529,577.11,1519.73,570.75Zm173.54,610.33,142.21-.37q.33-16.79-.1-33.53l-142.22-1.25Q1693.75,1163.51,1693.27,1181.08ZM1636.19,1415l130.32,56.79c4.81-10.1,9.88-20.1,14.19-30.37l-129.62-58.26C1646.64,1393.94,1641.32,1404.43,1636.19,1415Zm-29.3,53.12L1730.53,1538c5.87-9.54,11.79-19.07,17.17-28.8l-122.81-71.3C1619.31,1448.15,1613.1,1458.13,1606.89,1468.11Zm-34.84,49.74,115.66,82.21c6.84-8.89,13.61-17.82,20-26.94L1593,1489.58C1586.41,1499.19,1579.32,1508.57,1572.05,1517.85Zm-480.75,223,1.28,140.6q17,.43,33.92.11l.38-140.58C1115,1741.24,1103.17,1741.2,1091.3,1740.8Zm-570-598.51-142.23.38c-.22,11.2-.18,22.34.12,33.53l142.23,1.26C521,1165.73,520.93,1154,521.25,1142.29Zm602-559.72L1121.94,442c-11.32-.3-22.61-.32-33.93-.11l-.38,140.58C1099.51,582.14,1111.34,582.17,1123.21,582.57Zm560.86,477.63,139-29.65c-2.11-11-5.1-21.79-7.73-32.69l-139.11,28C1679.09,1037.27,1681.94,1048.66,1684.07,1060.2Zm7.77,60.23,141.39-15.08c-1-11.15-2.47-22.21-4-33.32l-141.43,13.43C1689.48,1097.11,1690.92,1108.73,1691.84,1120.43ZM1649.69,943.6l129.24-57.47c-4.36-10.29-9.49-20.32-14.37-30.45l-130,56C1639.79,922.23,1645.19,932.77,1649.69,943.6ZM1670,1001l135-43.83c-3.27-10.69-7.55-21.12-11.3-31.68l-135.29,42.21C1662.48,978.76,1666.71,989.76,1670,1001Zm7.08,300.07,139.28,28.84c2.57-10.87,5.49-21.67,7.55-32.64l-139.22-30.5C1682.66,1278.29,1679.89,1289.66,1677.12,1301.06Zm11.23-59.56,141.51,14.33c1.41-11.1,2.86-22.17,3.73-33.31l-141.48-15.94C1691.27,1218.27,1689.9,1229.89,1688.35,1241.5Zm-28.65,117.61,135.53,43.05c3.7-10.54,7.92-21,11.1-31.61l-135.26-44.69C1667.8,1337.08,1663.66,1348.06,1659.7,1359.11Zm-204.9-828.3-71.34,121c10.39,5.57,20.55,11.75,30.67,18L1484.06,548C1474.36,542.1,1464.7,536.17,1454.8,530.81ZM703.25,1579.12l-94.1,104.59q12.42,11.61,25.25,22.57l95.31-103.5Q716.2,1591.43,703.25,1579.12Zm449.41,160.68,16.13,139.84c11.28-.87,22.48-2.3,33.7-3.69L1188,1736.07C1176.24,1737.61,1164.49,1739,1152.66,1739.8ZM911,1706.51l-42.7,133.73c10.68,3.71,21.24,8,32.06,11.16L944.7,1718C933.33,1714.67,922.19,1710.5,911,1706.51Zm119.17,29.06-13.6,139.82c11.24,1.44,22.43,2.95,33.71,3.89l15.25-139.76C1053.68,1738.61,1041.92,1737.18,1030.15,1735.57Zm-280.3-116.68L667.4,1732.7c9,6.83,18.12,13.59,27.38,20l83.8-112.85C768.82,1633.2,759.28,1626.13,749.85,1618.89Zm50.53,34.75-69.92,121.8c9.68,5.85,19.34,11.78,29.24,17.14l71.36-121C820.66,1666,810.52,1659.84,800.38,1653.64Zm53.91,29.3-56.63,128.47c10.25,4.82,20.4,9.89,30.82,14.21l58.12-127.78C875.66,1693.38,865,1688.06,854.29,1682.94Zm115.53,41.16-28.31,137.51c11,2.61,22,5.57,33.08,7.67l30-137.43C992.89,1729.74,981.37,1726.93,969.82,1724.1Zm517.78-119,96,104.06q12.74-10.83,25.08-22.4l-94.73-105.14Q1501,1593.86,1487.6,1605.14ZM1439,1641.86l84.51,113.34c9.23-6.3,18.27-13,27.27-19.77l-83.18-114.31C1458.18,1628.31,1448.7,1635.31,1439,1641.86Zm-225.41,90.63,30.85,137.61c11.09-2,22-4.91,33-7.45L1248.26,1725C1236.73,1727.71,1225.21,1730.46,1213.56,1732.49Zm318.56-168.84,106.39,93.65q11.67-12.19,22.66-24.79l-105.28-94.87Q1544.49,1550.93,1532.12,1563.65Zm-145.43,109.69,72.12,121.41c9.86-5.33,19.48-11.18,29.14-17l-70.69-122.22C1407.15,1661.7,1397.06,1667.84,1386.69,1673.34ZM1273.35,1719l45.2,133.71c10.78-3.15,21.32-7.32,32-11l-43.54-134C1295.81,1711.66,1284.7,1715.75,1273.35,1719Zm58-19.76,58.93,128.13c10.39-4.26,20.52-9.28,30.72-14l-57.45-128.81C1352.83,1689.59,1342.22,1694.83,1331.31,1699.23Zm-800.88-436-139,29.65c2.12,11,5.1,21.79,7.74,32.68l139.13-28C535.42,1286.13,532.56,1274.73,530.43,1263.19Zm24.38-298.92-135.53-43c-3.71,10.53-7.91,21-11.1,31.61l135.26,44.67C546.7,986.31,550.86,975.31,554.81,964.27Zm-17.42,58L398.1,993.48c-2.57,10.88-5.49,21.68-7.54,32.64l139.21,30.5C531.84,1045.1,534.61,1033.73,537.39,1022.31ZM578.31,908.4,448,851.61c-4.79,10.1-9.87,20.11-14.19,30.37l129.63,58.24C567.88,929.44,573.18,919,578.31,908.4Zm64.14-102.86L526.8,723.32c-6.85,8.89-13.62,17.83-20,26.95l114.67,83.54C628.1,824.19,635.18,814.82,642.45,805.54Zm-34.84,49.73L484,785.39c-5.87,9.55-11.78,19.06-17.17,28.81l122.83,71.28C595.19,875.24,601.4,865.26,607.61,855.27ZM556.3,1629.09q11.07,12.67,22.83,25l105.81-93c-8.28-8.56-16.28-17.25-23.93-26.16Zm-30.13-547.21-141.53-14.32c-1.4,11.09-2.85,22.15-3.73,33.31l141.49,16C523.24,1105.13,524.61,1093.5,526.17,1081.88ZM682.38,759.71,576,666.08q-11.67,12.2-22.67,24.79l105.29,94.87Q670,772.45,682.38,759.71ZM522.67,1203,381.28,1218c1,11.16,2.49,22.23,4,33.34l141.43-13.44C525,1226.27,523.59,1214.64,522.67,1203ZM469,1505.23c5.43,9.78,11.42,19.33,17.36,28.91L609.57,1465c-6.3-10-12.56-20.06-18.19-30.34Zm40.4,64.16c6.44,9.18,13.27,18.16,20.18,27.07L644.71,1515c-7.33-9.33-14.48-18.76-21.15-28.4Zm55.45-189.6-129.27,57.47c4.37,10.29,9.49,20.32,14.37,30.45l130-56C574.74,1401.13,569.35,1390.6,564.84,1379.79Zm-20.36-57.42-135,43.84c3.25,10.71,7.53,21.14,11.3,31.71l135.28-42.23C552,1344.61,547.82,1333.6,544.48,1322.37ZM726.91,718.24l-96-104.07q-12.77,10.86-25.09,22.4l94.74,105.16C709.19,733.61,718,725.75,726.91,718.24Z"/><path class="cls-12" d="M1569.8,808.41c7.33,9.33,14.48,18.75,21.16,28.4L1705.11,754c-6.44-9.17-13.27-18.15-20.18-27.06ZM827.82,650l-72.13-121.4c-9.84,5.32-19.48,11.17-29.14,17l70.7,122.21C807.36,661.68,817.45,655.55,827.82,650Zm356.56-62.24L1198,448c-11.23-1.45-22.44-2.95-33.71-3.9L1149,583.86C1160.83,584.76,1172.59,586.2,1184.38,587.8Zm-122.54-4.21-16.12-139.84c-11.28.86-22.47,2.29-33.71,3.68l14.5,139.88C1038.26,585.78,1050,584.41,1061.84,583.59Zm457.89-12.84-83.8,112.83c9.76,6.59,19.3,13.66,28.74,20.91l82.43-113.8C1538.08,583.85,1529,577.11,1519.73,570.75Zm52.32,947.1,115.66,82.21c6.84-8.89,13.61-17.82,20-26.94L1593,1489.58C1586.41,1499.19,1579.32,1508.57,1572.05,1517.85Zm-480.75,223,1.28,140.6q17,.43,33.92.11l.38-140.58C1115,1741.24,1103.17,1741.2,1091.3,1740.8Zm-570-598.51-142.23.38c-.22,11.2-.18,22.34.12,33.53l142.23,1.26C521,1165.73,520.93,1154,521.25,1142.29Zm1162.82-82.09,139-29.65c-2.11-11-5.1-21.79-7.73-32.69l-139.11,28C1679.09,1037.27,1681.94,1048.66,1684.07,1060.2Zm-7,240.86,139.28,28.84c2.57-10.87,5.49-21.67,7.55-32.64l-139.22-30.5C1682.66,1278.29,1679.89,1289.66,1677.12,1301.06ZM854.29,1682.94l-56.63,128.47c10.25,4.82,20.4,9.89,30.82,14.21l58.12-127.78C875.66,1693.38,865,1688.06,854.29,1682.94Zm532.4-9.6,72.12,121.41c9.86-5.33,19.48-11.18,29.14-17l-70.69-122.22C1407.15,1661.7,1397.06,1667.84,1386.69,1673.34ZM530.43,1263.19l-139,29.65c2.12,11,5.1,21.79,7.74,32.68l139.13-28C535.42,1286.13,532.56,1274.73,530.43,1263.19Zm112-457.65L526.8,723.32c-6.85,8.89-13.62,17.83-20,26.95l114.67,83.54C628.1,824.19,635.18,814.82,642.45,805.54ZM509.39,1569.39c6.44,9.18,13.27,18.16,20.18,27.07L644.71,1515c-7.33-9.33-14.48-18.76-21.15-28.4Z"/><path class="cls-3" d="M775.53,681.53,691,568.17c-9.24,6.32-18.28,13-27.27,19.77l83.17,114.33C756.32,695.08,765.81,688.07,775.53,681.53Zm584.7-41.09L1416.84,512c-10.25-4.82-20.39-9.89-30.8-14.2l-58.13,127.75C1338.86,630,1349.51,635.31,1360.23,640.44Zm219.88-23.33-95.29,103.47q13.5,11.35,26.45,23.67l94.08-104.57Q1592.93,628.07,1580.11,617.11Zm-696.91,7L824.27,496c-10.39,4.27-20.5,9.27-30.73,14L851,638.86C861.67,633.8,872.29,628.54,883.2,624.15Zm361.48-24.88L1273,461.76c-11-2.59-22-5.54-33.07-7.64l-30,137.41C1221.61,593.65,1233.13,596.46,1244.68,599.27Zm362.21,868.84L1730.53,1538c5.87-9.54,11.79-19.07,17.17-28.8l-122.81-71.3C1619.31,1448.15,1613.1,1458.13,1606.89,1468.11Zm84.95-347.68,141.39-15.08c-1-11.15-2.47-22.21-4-33.32l-141.43,13.43C1689.48,1097.11,1690.92,1108.73,1691.84,1120.43ZM1649.69,943.6l129.24-57.47c-4.36-10.29-9.49-20.32-14.37-30.45l-130,56C1639.79,922.23,1645.19,932.77,1649.69,943.6ZM1670,1001l135-43.83c-3.27-10.69-7.55-21.12-11.3-31.68l-135.29,42.21C1662.48,978.76,1666.71,989.76,1670,1001Zm-10.34,358.12,135.53,43.05c3.7-10.54,7.92-21,11.1-31.61l-135.26-44.69C1667.8,1337.08,1663.66,1348.06,1659.7,1359.11Zm-629.55,376.46-13.6,139.82c11.24,1.44,22.43,2.95,33.71,3.89l15.25-139.76C1053.68,1738.61,1041.92,1737.18,1030.15,1735.57Zm-280.3-116.68L667.4,1732.7c9,6.83,18.12,13.59,27.38,20l83.8-112.85C768.82,1633.2,759.28,1626.13,749.85,1618.89Zm220,105.21-28.31,137.51c11,2.61,22,5.57,33.08,7.67l30-137.43C992.89,1729.74,981.37,1726.93,969.82,1724.1ZM1439,1641.86l84.51,113.34c9.23-6.3,18.27-13,27.27-19.77l-83.18-114.31C1458.18,1628.31,1448.7,1635.31,1439,1641.86ZM1273.35,1719l45.2,133.71c10.78-3.15,21.32-7.32,32-11l-43.54-134C1295.81,1711.66,1284.7,1715.75,1273.35,1719Zm-742.92-455.8-139,29.65c2.12,11,5.1,21.79,7.74,32.68l139.13-28C535.42,1286.13,532.56,1274.73,530.43,1263.19Zm7-240.88L398.1,993.48c-2.57,10.88-5.49,21.68-7.54,32.64l139.21,30.5C531.84,1045.1,534.61,1033.73,537.39,1022.31ZM642.45,805.54,526.8,723.32c-6.85,8.89-13.62,17.83-20,26.95l114.67,83.54C628.1,824.19,635.18,814.82,642.45,805.54Zm-77.61,574.25-129.27,57.47c4.37,10.29,9.49,20.32,14.37,30.45l130-56C574.74,1401.13,569.35,1390.6,564.84,1379.79Z"/><path class="cls-11" d="M1310.52,274.72c-9.66-2.22-19.2-5.18-28.93-7.08l-21.51,98.63c10.12,2,20.21,4.13,30.27,6.46ZM1267,359.06l17.92-82.16c4.36,1,8.74,2.12,13,3.24,2,.52,4,1,5.94,1.54L1287,363.38C1280,361.78,1273.34,360.35,1267,359.06Zm136.39-57.89c-9.39-3.2-18.66-6.91-28.12-9.8l-31.76,95.52q14.79,4.47,29.46,9.5Zm-52.08,79.47,26.53-79.81c4.61,1.51,9.23,3.19,13.72,4.82l4.24,1.54-25.44,79.63C1364.11,384.72,1357.73,382.65,1351.27,380.64Zm248.36,135.93,58.75-81.08c-8-5.94-15.92-11.85-24-17.5l-59.75,80.47Q1587.26,507.24,1599.63,516.57Zm35.52-88.82c4.62,3.26,9.22,6.62,13.71,9.94l-50,69c-5-3.74-9.82-7.25-14.49-10.58ZM1215.49,257.9c-9.87-1.2-19.66-2.74-29.56-3.64L1175,354.42c10.28.9,20.54,2,30.79,3.24Zm-34.55,88.53,9.08-83.24c5,.54,10,1.22,14.9,1.87l4.78.64-8.06,82.92C1194.94,347.83,1188.1,347.1,1180.94,346.43ZM1578.26,382c-8.54-5.08-17-10.26-25.68-15l-50.95,86.38q13.53,7.43,26.81,15.41Zm-67.34,67.57,43-72.9c5.14,2.89,10.27,5.94,15.28,8.94l-42.11,73.34C1521.55,455.62,1516.19,452.52,1510.92,449.54Zm-18-112.5c-9-4.15-17.91-8.61-27-12.46L1424.29,416c9.49,4,18.94,8.13,28.31,12.49Zm-60,73.87,34.91-76.72c5,2.17,9.89,4.51,14.69,6.79l2,.95-33.88,76.85C1444.92,416.15,1439.05,413.55,1432.91,410.91ZM1034.39,354l-11.57-100.22c-9.89.83-19.68,2.31-29.53,3.47L1003.63,357C1013.86,355.82,1024.12,354.82,1034.39,354Zm-30.86-89.5c5-.64,10.13-1.3,15.25-1.82l9.61,83.3c-7.15.63-14,1.31-20.64,2.07l-8.6-83ZM708.39,450.86l-51.5-86.71c-8.64,4.73-17.07,9.87-25.57,14.89l50.35,87.06Q694.92,458.23,708.39,450.86Zm-52.84-77,43.51,73.23c-5.22,2.92-10.53,6-16.06,9.24l-42.6-73.66C645.37,379.7,650.46,376.69,655.55,373.84ZM785.49,414l-42.18-91.7c-9.09,3.8-18,8.19-26.94,12.29l40.89,91.72C766.6,422,776,418,785.49,414ZM726.3,338.82c4.93-2.32,10-4.7,15.09-6.9l35.42,77c-6.1,2.6-11.93,5.16-17.62,7.74L724.8,339.52ZM635.69,495.55l-60.26-80.83c-8.07,5.59-16,11.46-23.92,17.35l59.27,81.44Q623.11,504.29,635.69,495.55Zm-61.05-71.09,51.25,68.76c-4.61,3.28-9.36,6.73-14.34,10.43l-50.49-69.38C565.48,431,570,427.7,574.64,424.46Zm291.49-39-32.37-95.73c-9.45,2.84-18.67,6.5-28.06,9.63l31,95.42Q851.36,389.78,866.13,385.41Zm-48.34-81.65c4.4-1.57,8.91-3.19,13.42-4.64l27.06,80c-6.41,2-12.75,4-18.95,6.05l-26-79.84Zm847.64,267.71,67-74.51c-7.3-6.72-14.67-13.35-22.14-19.79l-67.92,73.74Q1654.06,560.93,1665.43,571.47ZM1710.6,487c3.87,3.37,7.88,6.93,12.09,10.73l-57.5,63.9c-4.24-3.89-8.51-7.73-12.76-11.48ZM949.39,365.3l-22.15-98.75c-9.7,1.84-19.22,4.72-28.87,6.88l20.79,98.15C929.21,369.31,939.28,367.19,949.39,365.3ZM911,278.94c4.26-1.09,8.63-2.21,13-3.16l18.45,82.29c-6.35,1.25-13,2.63-20,4.19l-17.34-81.84Zm209.17,72.47-.91-100.5q-9-.18-17.89-.17c-4,0-7.9,0-11.86.07l-.28,100.5q6.46-.1,12.94-.1Q1111.16,351.21,1120.16,351.41Zm-25.71-92.13c2.3,0,4.61,0,6.91,0q6.5,0,13,.09l.75,83.46q-6.48-.1-12.95-.1-4,0-7.94,0ZM568.23,547.58,499.84,473.4q-11.14,9.63-22,19.67L545.33,568Q556.64,557.54,568.23,547.58Zm-68.67-64.4,58.63,63.59q-6.32,5.55-12.62,11.34l-58-64.32C491.74,490.06,495.7,486.54,499.56,483.18ZM1851.2,1507.64l92.79,40.42c4.15-8.87,8.59-17.64,12.43-26.63l-92.77-41.69Q1857.7,1493.78,1851.2,1507.64Zm96.7,18.76c-1.22,2.6-2.47,5.19-3.69,7.75q-1.05,2.16-2.08,4.32l-82.28-35.84c1.92-4.26,3.85-8.64,5.81-13.19Zm-64.72-97.31,96.54,30.67c3.18-9.27,6.86-18.39,9.74-27.74l-96.85-32Q1888.17,1414.64,1883.18,1429.09Zm98.5,9c-.76,2.13-1.55,4.27-2.35,6.46-.7,1.91-1.4,3.83-2.09,5.74L1891,1422.92q2.17-6.59,4.27-13.33Zm-75.08-90.5,99.3,20.56c2.18-9.55,5.09-19,7-28.54l-99.91-21.9C1911,1327.73,1908.89,1337.68,1906.6,1347.61Zm9.76-20.55,89.56,19.62c-.51,2-1.06,4.12-1.61,6.23s-1,4-1.56,6l-89.21-18.47C1914.55,1335.85,1915.49,1331.4,1916.36,1327.06ZM1811,1582.36l88.08,49.77c5.1-8.4,10.28-16.74,15.06-25.28l-87.71-50.91Q1819,1569.28,1811,1582.36Zm94,28.18c-2.13,3.57-4.29,7.11-6.42,10.6l-.79,1.3-77.46-43.77c2.6-4.39,5.08-8.68,7.48-12.93Zm16.34-346.42,101,10.22c1.17-9.74,2.68-19.43,3.51-29.19l-101.39-11.43C1923.56,1243.87,1922.55,1254,1921.32,1264.12Zm7.32-21.39,91.29,10.29c-.38,3.18-.8,6.39-1.24,9.7-.12.9-.24,1.79-.35,2.69l-91-9.21C1927.77,1251.8,1928.22,1247.33,1928.64,1242.73Zm-220.75,474.39,75.8,66.74q10.14-10.78,19.9-21.77l-75-67.6Q1718.48,1706,1707.89,1717.12Zm85.89,45.76c-3.29,3.63-6.72,7.35-10.33,11.21l-65.51-57.69q5.57-6,10.89-12ZM1763,1652.43l82.41,58.59c5.95-7.83,11.88-15.67,17.54-23.65l-81.78-59.57Q1772.38,1640.27,1763,1652.43Zm90.38,37.22c-2.8,3.78-5.69,7.62-8.73,11.62l-71.83-51.07c3.22-4.32,6.26-8.48,9.18-12.54ZM1725.17,632.73l74.6-67.13c-6.51-7.39-13.21-14.68-20-21.9L1704.38,610Q1715,621.21,1725.17,632.73ZM1790,564.8l-64.51,58.05c-3.59-4-7.27-8.1-11-12.16l65.08-57.21C1783.22,557.42,1786.68,561.18,1790,564.8Zm137.14,614.72,101.68-.27c.13-9.82.08-19.6-.1-29.42l-101.68-.89Q1927.36,1164.23,1927.11,1179.52Zm96.73-21.22c0,4.21.06,8.35.05,12.45l-91.72.25q0-6.76,0-13.51ZM1823.91,771.87l87.4-50.38c-4.83-8.54-10.07-16.91-15.22-25.36l-87.78,49.24Q1816.37,758.51,1823.91,771.87Zm70.9-66.07,1.15,1.89c2,3.33,4.12,6.72,6.16,10.12l-76.83,44.28c-2.44-4.28-5-8.61-7.59-13Zm-116.57-6.06,81.4-59.06c-5.71-8-11.69-15.89-17.7-23.74l-82,58.06Q1769.33,687.25,1778.24,699.74Zm71.8-61.33-71,51.49c-3-4.1-6-8.3-9.3-12.66l71.43-50.57C1844.11,630.5,1847.09,634.43,1850,638.41Zm11.61,209.91,92.51-41.11c-3.89-9-8.39-17.82-12.61-26.73L1849,820.34Q1855.64,834.23,1861.65,848.32Zm80.16-53.91c1.25,2.58,2.52,5.19,3.77,7.82l-81.93,36.41c-2-4.57-4-9-5.93-13.28l82-35.31C1940.4,791.51,1941.11,793,1941.81,794.41ZM1924,1094.72l101.32-10.8c-.89-9.77-2.46-19.46-3.68-29.22l-100.93,9.6C1922,1074.42,1923.05,1084.57,1924,1094.72Zm93.71-31.12.43,3.12c.44,3.18.86,6.26,1.25,9.3l-91.2,9.72c-.46-4.61-.93-9.09-1.44-13.49ZM1891.11,928.21l96.64-31.4c-2.92-9.35-6.66-18.5-9.9-27.78l-96.35,30.06Q1886.6,913.58,1891.11,928.21Zm86.42-44c.81,2.19,1.61,4.34,2.38,6.46l-86.14,28c-1.43-4.52-2.9-9-4.37-13.4l86-26.84C1976.09,880.38,1976.81,882.31,1977.53,884.24ZM1912,1010.63l99.77-21.27c-1.91-9.61-4.91-19-7.14-28.6l-99.18,20C1907.79,990.66,1910,1000.62,1912,1010.63Zm89.5-40.67c.55,2.1,1.11,4.19,1.66,6.24s1.09,4.09,1.61,6.08l-89.39,19.06c-.91-4.37-1.88-8.84-2.92-13.47ZM904,2048.67c9.67,2.22,19.2,5.18,28.94,7.09l21.51-98.63c-10.12-2-20.21-4.14-30.27-6.47Zm43.57-84.34-17.92,82.16c-4.34-1-8.7-2.11-12.94-3.23-2-.52-4-1-6-1.55L927.5,1960C934.54,1961.61,941.17,1963,947.55,1964.33Zm146.81,7.65.91,100.5q8.94.17,17.87.17,5.94,0,11.88-.08l.27-100.49q-6.45.09-12.89.1Q1103.39,1972.18,1094.36,1972Zm25.71,92.13q-3.46,0-6.93,0-6.48,0-13-.09l-.76-83.46q6.49.11,13,.1,3.94,0,7.89,0Zm-121,1.36c9.86,1.22,19.67,2.77,29.55,3.66L1039.5,1969c-10.27-.9-20.54-2-30.78-3.24Zm34.55-88.51-9.09,83.24c-5.08-.55-10.18-1.24-15.15-1.91l-4.51-.61,8.06-82.91C1019.58,1975.57,1026.42,1976.29,1033.57,1977Zm-222.41,45.27c9.4,3.2,18.65,6.9,28.14,9.79L871,1936.5q-14.79-4.47-29.46-9.5Zm52.09-79.47-26.53,79.8c-4.65-1.52-9.3-3.2-13.82-4.85l-4.15-1.5,25.44-79.64C850.39,1938.67,856.77,1940.74,863.25,1942.76ZM614.87,1806.82l-58.74,81.07c7.94,5.95,15.92,11.86,24,17.5l59.75-80.46Q627.26,1816.15,614.87,1806.82Zm-35.51,88.82c-4.67-3.29-9.31-6.68-13.72-10l50-69c5,3.75,9.83,7.25,14.49,10.58Zm56.91,45.78c8.52,5.08,17,10.27,25.65,15l51-86.38q-13.51-7.42-26.8-15.41Zm67.31-67.57-43,72.9c-5.12-2.88-10.25-5.93-15.26-8.94l42.1-73.34C693,1867.77,698.31,1870.87,703.58,1873.85Zm18,112.5c9,4.16,17.92,8.62,27,12.47l41.6-91.44c-9.49-4-18.94-8.13-28.31-12.49Zm60-73.86-34.91,76.72c-5-2.19-10-4.55-14.81-6.85l-1.91-.9,33.88-76.85C769.57,1907.23,775.44,1909.84,781.6,1912.49Zm647.41-3.13,42.18,91.7c9.09-3.8,18-8.19,27-12.3L1457.24,1897C1447.9,1901.35,1438.48,1905.43,1429,1909.36Zm59.23,75.19c-5,2.32-10,4.71-15.13,6.92l-35.42-77c6.13-2.61,12-5.17,17.62-7.75l34.4,77.13Zm17.88-112,51.51,86.69c8.63-4.72,17.07-9.85,25.57-14.88l-50.37-87.06Q1519.6,1865.16,1506.12,1872.53Zm52.84,77-43.5-73.23c5.21-2.92,10.52-6,16-9.24l42.61,73.66C1569.14,1943.69,1564.05,1946.69,1559,1949.54Zm19.85-121.7,60.27,80.84c8.07-5.61,16-11.47,23.92-17.35l-59.26-81.46Q1591.4,1819.1,1578.81,1827.84Zm61.07,71.09-51.27-68.76c4.62-3.29,9.38-6.75,14.36-10.44l50.48,69.39C1648.82,1892.53,1644.36,1895.77,1639.88,1898.93Zm6.4-123.13,68.4,74.17c7.42-6.4,14.73-13,22-19.65l-67.51-74.93Q1657.87,1765.84,1646.28,1775.8Zm68.67,64.39-58.63-63.58c4.22-3.71,8.44-7.5,12.62-11.34l58,64.33C1722.78,1833.32,1718.82,1836.83,1715,1840.19ZM549.07,1751.92l-67,74.51c7.3,6.72,14.67,13.35,22.14,19.79l67.93-73.74Q560.44,1762.46,549.07,1751.92Zm-45.16,84.52c-3.89-3.38-7.9-6.94-12.09-10.73l57.49-63.9q6.38,5.84,12.76,11.48Zm761.2,121.65,22.15,98.75c9.73-1.84,19.23-4.74,28.89-6.89l-20.8-98.14C1285.3,1954.07,1275.23,1956.2,1265.11,1958.09Zm38.42,86.36c-4.26,1.09-8.64,2.21-13,3.16l-18.45-82.29c6.33-1.25,12.94-2.63,20-4.19l17.35,81.83ZM506.62,606.26l-75.8-66.73c-6.77,7.19-13.41,14.41-19.89,21.76l75,67.6Q496,617.43,506.62,606.26ZM420.73,560.5c3.28-3.62,6.7-7.33,10.32-11.19L496.56,607c-3.7,4-7.34,8-10.88,12Zm759.4,1408.91,11.55,100.22c9.89-.83,19.69-2.32,29.53-3.47l-10.33-99.81C1200.65,1967.57,1190.4,1968.57,1180.13,1969.41Zm30.49,89.54c-4.89.63-9.9,1.27-14.89,1.78l-9.61-83.31c7.08-.62,14-1.31,20.65-2.06l8.58,83Zm137.77-121,32.36,95.72c9.44-2.84,18.69-6.49,28.06-9.63l-31-95.42Q1363.17,1933.6,1348.39,1938Zm48.61,81.54c-4.48,1.61-9.1,3.26-13.7,4.74l-27-80c6.43-2,12.77-4,19-6.06l26,79.85ZM307.9,975.77l-99.29-20.56c-2.18,9.54-5.09,18.95-7,28.55l99.91,21.9C303.46,995.66,305.61,985.7,307.9,975.77Zm-9.76,20.56-89.55-19.62c.51-2,1-4.09,1.59-6.19s1.06-4,1.58-6.09L301,982.91C300,987.53,299,992,298.14,996.33Zm33.18-102L234.8,863.62c-3.18,9.29-6.88,18.4-9.74,27.74l96.84,32Q326.33,908.75,331.32,894.29Zm-98.48-9c.74-2.08,1.51-4.18,2.3-6.33q1.08-2.92,2.14-5.87l86.21,27.4q-2.16,6.59-4.27,13.33Zm60.35,174-101-10.22c-1.17,9.74-2.67,19.42-3.52,29.2l101.39,11.42C290.94,1079.51,292,1069.38,293.19,1059.26Zm-7.33,21.4-91.28-10.29c.38-3.14.79-6.31,1.23-9.57.12-1,.25-1.89.37-2.83l91,9.21C286.73,1071.56,286.28,1076,285.86,1080.66ZM403.54,741l-88.08-49.78c-5.08,8.4-10.28,16.74-15.06,25.27l87.71,50.91Q395.54,754.11,403.54,741Zm-94-28.19c1.91-3.21,3.86-6.4,5.77-9.54l1.43-2.36,77.46,43.77c-2.61,4.4-5.09,8.69-7.48,12.92ZM451.5,671l-82.42-58.58C363.14,620.2,357.21,628,351.54,636l81.78,59.57C439.19,687.28,445.28,679.08,451.5,671Zm-90.38-37.21c2.8-3.8,5.69-7.63,8.72-11.63l71.84,51.07c-3.22,4.31-6.27,8.48-9.18,12.55Zm-73.73,510.13-101.65.27q-.21,14.71.09,29.41l101.66.89Q287.15,1159.16,287.39,1143.87Zm-96.72,21.21q-.06-6.22,0-12.44l91.7-.25q0,6.75.05,13.49ZM363.3,815.74l-92.78-40.43c-4.16,8.88-8.6,17.66-12.44,26.65l92.77,41.69Q356.8,829.61,363.3,815.74ZM266.6,797c1.23-2.61,2.48-5.22,3.71-7.78l2.07-4.31,82.28,35.86c-1.94,4.27-3.87,8.65-5.82,13.19Zm222.73,893.67-74.6,67.13c6.51,7.39,13.21,14.68,20,21.89l75.39-66.26Q499.48,1702.19,489.33,1690.66Zm-64.8,67.93L489,1700.53c3.58,4,7.27,8.1,11,12.17L435,1769.91C431.28,1766,427.82,1762.21,424.53,1758.59Zm-33.94-207.08-87.39,50.37c4.85,8.56,10.08,16.94,15.22,25.37L406.19,1578Q398.14,1564.87,390.59,1551.51Zm-70.89,66.07-.66-1.09c-2.2-3.59-4.44-7.25-6.65-10.92l76.82-44.28c2.43,4.28,5,8.6,7.59,13Zm33.15-142.51-92.5,41.12c3.89,9,8.41,17.81,12.61,26.72l92.52-39.86Q358.88,1489.16,352.85,1475.07Zm-80.39,53.41c-1.17-2.41-2.36-4.85-3.53-7.31l81.92-36.43c2,4.58,4,9,5.93,13.28l-82,35.31C274,1531.71,273.24,1530.09,272.46,1528.48Zm163.8,95.16-81.4,59.06c5.71,8,11.69,15.89,17.7,23.75l82-58.07C448.32,1640.22,442.18,1632,436.26,1623.64ZM364.46,1685l71-51.5c2.94,4.09,6,8.29,9.3,12.67l-71.43,50.57C370.39,1692.89,367.41,1689,364.46,1685Zm-41.07-289.81-96.64,31.38c2.92,9.38,6.67,18.53,9.91,27.8l96.34-30Q327.9,1409.81,323.39,1395.17Zm-86.32,44.22c-.85-2.28-1.68-4.51-2.48-6.72l86.14-28c1.43,4.52,2.9,9,4.38,13.42l-86,26.81C238.44,1443.08,237.76,1441.24,237.07,1439.39Zm65.45-126.64L202.75,1334c1.93,9.6,4.92,19,7.16,28.6l99.16-19.94C306.71,1332.73,304.5,1322.76,302.52,1312.75ZM213,1353.42c-.54-2.08-1.09-4.14-1.63-6.17s-1.11-4.13-1.63-6.15l89.38-19q1.37,6.54,2.92,13.46Zm77.52-124.76-101.33,10.81c.9,9.77,2.48,19.45,3.7,29.2l100.91-9.58C292.52,1249,291.45,1238.82,290.54,1228.66Zm-93.71,31.11c-.15-1.06-.29-2.12-.44-3.18-.44-3.15-.86-6.2-1.24-9.23l91.19-9.72c.46,4.6.93,9.08,1.44,13.5Z"/><path class="cls-11" d="M1215.49,257.9c-9.87-1.2-19.66-2.74-29.56-3.64L1175,354.42c10.28.9,20.54,2,30.79,3.24Zm-34.55,88.53,9.08-83.24c5,.54,10,1.22,14.9,1.87l4.78.64-8.06,82.92C1194.94,347.83,1188.1,347.1,1180.94,346.43ZM1578.26,382c-8.54-5.08-17-10.26-25.68-15l-50.95,86.38q13.53,7.43,26.81,15.41Zm-67.34,67.57,43-72.9c5.14,2.89,10.27,5.94,15.28,8.94l-42.11,73.34C1521.55,455.62,1516.19,452.52,1510.92,449.54Zm-18-112.5c-9-4.15-17.91-8.61-27-12.46L1424.29,416c9.49,4,18.94,8.13,28.31,12.49Zm-60,73.87,34.91-76.72c5,2.17,9.89,4.51,14.69,6.79l2,.95-33.88,76.85C1444.92,416.15,1439.05,413.55,1432.91,410.91ZM708.39,450.86l-51.5-86.71c-8.64,4.73-17.07,9.87-25.57,14.89l50.35,87.06Q694.92,458.23,708.39,450.86Zm-52.84-77,43.51,73.23c-5.22,2.92-10.53,6-16.06,9.24l-42.6-73.66C645.37,379.7,650.46,376.69,655.55,373.84Zm293.84-8.54-22.15-98.75c-9.7,1.84-19.22,4.72-28.87,6.88l20.79,98.15C929.21,369.31,939.28,367.19,949.39,365.3ZM911,278.94c4.26-1.09,8.63-2.21,13-3.16l18.45,82.29c-6.35,1.25-13,2.63-20,4.19l-17.34-81.84ZM568.23,547.58,499.84,473.4q-11.14,9.63-22,19.67L545.33,568Q556.64,557.54,568.23,547.58Zm-68.67-64.4,58.63,63.59q-6.32,5.55-12.62,11.34l-58-64.32C491.74,490.06,495.7,486.54,499.56,483.18Zm1383.62,945.91,96.54,30.67c3.18-9.27,6.86-18.39,9.74-27.74l-96.85-32Q1888.17,1414.64,1883.18,1429.09Zm98.5,9c-.76,2.13-1.55,4.27-2.35,6.46-.7,1.91-1.4,3.83-2.09,5.74L1891,1422.92q2.17-6.59,4.27-13.33Zm-60.36-174,101,10.22c1.17-9.74,2.68-19.43,3.51-29.19l-101.39-11.43C1923.56,1243.87,1922.55,1254,1921.32,1264.12Zm7.32-21.39,91.29,10.29c-.38,3.18-.8,6.39-1.24,9.7-.12.9-.24,1.79-.35,2.69l-91-9.21C1927.77,1251.8,1928.22,1247.33,1928.64,1242.73Zm-220.75,474.39,75.8,66.74q10.14-10.78,19.9-21.77l-75-67.6Q1718.48,1706,1707.89,1717.12Zm85.89,45.76c-3.29,3.63-6.72,7.35-10.33,11.21l-65.51-57.69q5.57-6,10.89-12ZM1763,1652.43l82.41,58.59c5.95-7.83,11.88-15.67,17.54-23.65l-81.78-59.57Q1772.38,1640.27,1763,1652.43Zm90.38,37.22c-2.8,3.78-5.69,7.62-8.73,11.62l-71.83-51.07c3.22-4.32,6.26-8.48,9.18-12.54Zm-29.48-917.78,87.4-50.38c-4.83-8.54-10.07-16.91-15.22-25.36l-87.78,49.24Q1816.37,758.51,1823.91,771.87Zm70.9-66.07,1.15,1.89c2,3.33,4.12,6.72,6.16,10.12l-76.83,44.28c-2.44-4.28-5-8.61-7.59-13ZM1912,1010.63l99.77-21.27c-1.91-9.61-4.91-19-7.14-28.6l-99.18,20C1907.79,990.66,1910,1000.62,1912,1010.63Zm89.5-40.67c.55,2.1,1.11,4.19,1.66,6.24s1.09,4.09,1.61,6.08l-89.39,19.06c-.91-4.37-1.88-8.84-2.92-13.47ZM904,2048.67c9.67,2.22,19.2,5.18,28.94,7.09l21.51-98.63c-10.12-2-20.21-4.14-30.27-6.47Zm43.57-84.34-17.92,82.16c-4.34-1-8.7-2.11-12.94-3.23-2-.52-4-1-6-1.55L927.5,1960C934.54,1961.61,941.17,1963,947.55,1964.33Zm-226,22c9,4.16,17.92,8.62,27,12.47l41.6-91.44c-9.49-4-18.94-8.13-28.31-12.49Zm60-73.86-34.91,76.72c-5-2.19-10-4.55-14.81-6.85l-1.91-.9,33.88-76.85C769.57,1907.23,775.44,1909.84,781.6,1912.49Zm724.52-40,51.51,86.69c8.63-4.72,17.07-9.85,25.57-14.88l-50.37-87.06Q1519.6,1865.16,1506.12,1872.53Zm52.84,77-43.5-73.23c5.21-2.92,10.52-6,16-9.24l42.61,73.66C1569.14,1943.69,1564.05,1946.69,1559,1949.54ZM549.07,1751.92l-67,74.51c7.3,6.72,14.67,13.35,22.14,19.79l67.93-73.74Q560.44,1762.46,549.07,1751.92Zm-45.16,84.52c-3.89-3.38-7.9-6.94-12.09-10.73l57.49-63.9q6.38,5.84,12.76,11.48Zm761.2,121.65,22.15,98.75c9.73-1.84,19.23-4.74,28.89-6.89l-20.8-98.14C1285.3,1954.07,1275.23,1956.2,1265.11,1958.09Zm38.42,86.36c-4.26,1.09-8.64,2.21-13,3.16l-18.45-82.29c6.33-1.25,12.94-2.63,20-4.19l17.35,81.83Zm-123.4-75,11.55,100.22c9.89-.83,19.69-2.32,29.53-3.47l-10.33-99.81C1200.65,1967.57,1190.4,1968.57,1180.13,1969.41Zm30.49,89.54c-4.89.63-9.9,1.27-14.89,1.78l-9.61-83.31c7.08-.62,14-1.31,20.65-2.06l8.58,83ZM293.19,1059.26l-101-10.22c-1.17,9.74-2.67,19.42-3.52,29.2l101.39,11.42C290.94,1079.51,292,1069.38,293.19,1059.26Zm-7.33,21.4-91.28-10.29c.38-3.14.79-6.31,1.23-9.57.12-1,.25-1.89.37-2.83l91,9.21C286.73,1071.56,286.28,1076,285.86,1080.66ZM403.54,741l-88.08-49.78c-5.08,8.4-10.28,16.74-15.06,25.27l87.71,50.91Q395.54,754.11,403.54,741Zm-94-28.19c1.91-3.21,3.86-6.4,5.77-9.54l1.43-2.36,77.46,43.77c-2.61,4.4-5.09,8.69-7.48,12.92Zm53.76,102.9-92.78-40.43c-4.16,8.88-8.6,17.66-12.44,26.65l92.77,41.69Q356.8,829.61,363.3,815.74ZM266.6,797c1.23-2.61,2.48-5.22,3.71-7.78l2.07-4.31,82.28,35.86c-1.94,4.27-3.87,8.65-5.82,13.19Zm124,754.52-87.39,50.37c4.85,8.56,10.08,16.94,15.22,25.37L406.19,1578Q398.14,1564.87,390.59,1551.51Zm-70.89,66.07-.66-1.09c-2.2-3.59-4.44-7.25-6.65-10.92l76.82-44.28c2.43,4.28,5,8.6,7.59,13Zm3.69-222.41-96.64,31.38c2.92,9.38,6.67,18.53,9.91,27.8l96.34-30Q327.9,1409.81,323.39,1395.17Zm-86.32,44.22c-.85-2.28-1.68-4.51-2.48-6.72l86.14-28c1.43,4.52,2.9,9,4.38,13.42l-86,26.81C238.44,1443.08,237.76,1441.24,237.07,1439.39Zm65.45-126.64L202.75,1334c1.93,9.6,4.92,19,7.16,28.6l99.16-19.94C306.71,1332.73,304.5,1322.76,302.52,1312.75ZM213,1353.42c-.54-2.08-1.09-4.14-1.63-6.17s-1.11-4.13-1.63-6.15l89.38-19q1.37,6.54,2.92,13.46Z"/><g class="cls-13"><path class="cls-14" d="M1625.06,1168.78c-.87,121-44.42,232-116.56,318.88l29.83,24.76c83.7-100.48,124.81-213,125.54-343.52Z"/></g><path class="cls-2" d="M1205.76,1705.25c125.75-21.54,241.07-86.92,325.35-184.33l-29.83-24.76c-94.74,109.23-235.51,178.3-392.63,177.81A521.92,521.92,0,0,1,854.3,1607.2l-19.17,32.94C948.61,1703.67,1080,1726.79,1205.76,1705.25Z"/><path class="cls-3" d="M588.94,1160.27c-.89-282.37,230.79-511.38,516.46-510.49a526.33,526.33,0,0,1,84.48,7.1l6.64-37.9c-98.11-16.53-187.7-8.58-281.48,24.9-219,78.19-365.58,285.58-364.85,516.06a544.45,544.45,0,0,0,32.41,183l36.16-12.91A506.07,506.07,0,0,1,588.94,1160.27Z"/><path class="cls-11" d="M622.64,1340.54l-36.16,12.91c46.64,122.45,124.86,214.48,238.88,281.09l19.18-33C743.78,1542.19,664.78,1450.19,622.64,1340.54Z"/><path class="cls-12" d="M1625,1157.65l38.81.12c-1.69-128.56-47.83-252.47-130.27-349.47s-198-163.38-325.94-187.35L1201,658.84C1439.43,703.67,1621.42,910.13,1625,1157.65Z"/><ellipse class="cls-15" cx="525.43" cy="1272.75" rx="496.32" ry="271.88" transform="translate(-222.32 116.53) rotate(-10.46)"/><ellipse class="cls-16" cx="960.83" cy="1630.01" rx="476.37" ry="111.41" transform="translate(-855.07 2161.66) rotate(-75.8)"/><ellipse class="cls-17" cx="1667.96" cy="1108.15" rx="299.59" ry="177.15" transform="translate(-213.69 422.96) rotate(-13.59)"/><ellipse class="cls-18" cx="1203.16" cy="584.73" rx="502.73" ry="105.57" transform="translate(526.57 1738.74) rotate(-85.54)"/><ellipse class="cls-19" cx="1580.78" cy="730.42" rx="376.73" ry="255.27" transform="translate(-139.98 997.6) rotate(-33.63)"/><ellipse class="cls-20" cx="1565.42" cy="1566.73" rx="212.18" ry="453.25" transform="translate(-610.57 1154.14) rotate(-34.29)"/><ellipse class="cls-21" cx="741.18" cy="707.66" rx="203.63" ry="472.26" transform="translate(-257.22 476.73) rotate(-30.65)"/><g class="cls-4"><path class="cls-22" d="M1389.06,874.56l18.71-18.49C1258.08,712.16,1029.23,695.79,863,807.39l15.23,21.46C1034.26,724.18,1248.4,739.56,1389.06,874.56Z"/></g><path class="cls-23" d="M1111.26,668.64l.14,45.87a456.14,456.14,0,0,1,280.84,101.73l29.72-35A502.9,502.9,0,0,0,1111.26,668.64Zm280.51,137.82c-79.15-63.17-174.21-97.8-275.42-100.36l-.09-28.86A503,503,0,0,1,1412,782.64Z"/><path class="cls-24" d="M1303.53,616.86l42.71-133.7c-10.7-3.72-21.25-8-32.08-11.17L1269.83,605.4C1281.19,608.7,1292.33,612.86,1303.53,616.86Zm56.7,23.58L1416.84,512c-10.25-4.82-20.39-9.89-30.8-14.2l-58.13,127.75C1338.86,630,1349.51,635.31,1360.23,640.44ZM941.17,604.39,896,470.7c-10.79,3.15-21.33,7.31-32,11l43.54,134C918.7,611.72,929.83,607.61,941.17,604.39Zm-58,19.76L824.27,496c-10.39,4.27-20.5,9.27-30.73,14L851,638.86C861.67,633.8,872.29,628.54,883.2,624.15Zm361.48-24.88L1273,461.76c-11-2.59-22-5.54-33.07-7.64l-30,137.41C1221.61,593.65,1233.13,596.46,1244.68,599.27Zm-60.3-11.47L1198,448c-11.23-1.45-22.44-2.95-33.71-3.9L1149,583.86C1160.83,584.76,1172.59,586.2,1184.38,587.8Zm-122.54-4.21-16.12-139.84c-11.28.86-22.47,2.29-33.71,3.68l14.5,139.88C1038.26,585.78,1050,584.41,1061.84,583.59ZM1001,590.88,970.11,453.29c-11.1,2-22,4.91-33,7.45l29.18,137.67C977.79,595.67,989.31,592.92,1001,590.88Zm518.76-20.13-83.8,112.83c9.76,6.59,19.3,13.66,28.74,20.91l82.43-113.8C1538.08,583.85,1529,577.11,1519.73,570.75Zm-396.52,11.82L1121.94,442c-11.32-.3-22.61-.32-33.93-.11l-.38,140.58C1099.51,582.14,1111.34,582.17,1123.21,582.57Zm331.59-51.76-71.34,121c10.39,5.57,20.55,11.75,30.67,18L1484.06,548C1474.36,542.1,1464.7,536.17,1454.8,530.81Z"/><path class="cls-25" d="M1184.38,587.8,1198,448c-11.23-1.45-22.44-2.95-33.71-3.9L1149,583.86C1160.83,584.76,1172.59,586.2,1184.38,587.8Zm-122.54-4.21-16.12-139.84c-11.28.86-22.47,2.29-33.71,3.68l14.5,139.88C1038.26,585.78,1050,584.41,1061.84,583.59Zm457.89-12.84-83.8,112.83c9.76,6.59,19.3,13.66,28.74,20.91l82.43-113.8C1538.08,583.85,1529,577.11,1519.73,570.75Z"/><path class="cls-26" d="M1360.23,640.44,1416.84,512c-10.25-4.82-20.39-9.89-30.8-14.2l-58.13,127.75C1338.86,630,1349.51,635.31,1360.23,640.44Zm-477-16.29L824.27,496c-10.39,4.27-20.5,9.27-30.73,14L851,638.86C861.67,633.8,872.29,628.54,883.2,624.15Zm361.48-24.88L1273,461.76c-11-2.59-22-5.54-33.07-7.64l-30,137.41C1221.61,593.65,1233.13,596.46,1244.68,599.27Z"/><path class="cls-24" d="M1310.52,274.72c-9.66-2.22-19.2-5.18-28.93-7.08l-21.51,98.63c10.12,2,20.21,4.13,30.27,6.46ZM1267,359.06l17.92-82.16c4.36,1,8.74,2.12,13,3.24,2,.52,4,1,5.94,1.54L1287,363.38C1280,361.78,1273.34,360.35,1267,359.06Zm136.39-57.89c-9.39-3.2-18.66-6.91-28.12-9.8l-31.76,95.52q14.79,4.47,29.46,9.5Zm-52.08,79.47,26.53-79.81c4.61,1.51,9.23,3.19,13.72,4.82l4.24,1.54-25.44,79.63C1364.11,384.72,1357.73,382.65,1351.27,380.64ZM1215.49,257.9c-9.87-1.2-19.66-2.74-29.56-3.64L1175,354.42c10.28.9,20.54,2,30.79,3.24Zm-34.55,88.53,9.08-83.24c5,.54,10,1.22,14.9,1.87l4.78.64-8.06,82.92C1194.94,347.83,1188.1,347.1,1180.94,346.43ZM1578.26,382c-8.54-5.08-17-10.26-25.68-15l-50.95,86.38q13.53,7.43,26.81,15.41Zm-67.34,67.57,43-72.9c5.14,2.89,10.27,5.94,15.28,8.94l-42.11,73.34C1521.55,455.62,1516.19,452.52,1510.92,449.54Zm-18-112.5c-9-4.15-17.91-8.61-27-12.46L1424.29,416c9.49,4,18.94,8.13,28.31,12.49Zm-60,73.87,34.91-76.72c5,2.17,9.89,4.51,14.69,6.79l2,.95-33.88,76.85C1444.92,416.15,1439.05,413.55,1432.91,410.91ZM1034.39,354l-11.57-100.22c-9.89.83-19.68,2.31-29.53,3.47L1003.63,357C1013.86,355.82,1024.12,354.82,1034.39,354Zm-30.86-89.5c5-.64,10.13-1.3,15.25-1.82l9.61,83.3c-7.15.63-14,1.31-20.64,2.07l-8.6-83ZM866.13,385.41l-32.37-95.73c-9.45,2.84-18.67,6.5-28.06,9.63l31,95.42Q851.36,389.78,866.13,385.41Zm-48.34-81.65c4.4-1.57,8.91-3.19,13.42-4.64l27.06,80c-6.41,2-12.75,4-18.95,6.05l-26-79.84Zm131.6,61.54-22.15-98.75c-9.7,1.84-19.22,4.72-28.87,6.88l20.79,98.15C929.21,369.31,939.28,367.19,949.39,365.3ZM911,278.94c4.26-1.09,8.63-2.21,13-3.16l18.45,82.29c-6.35,1.25-13,2.63-20,4.19l-17.34-81.84Zm209.17,72.47-.91-100.5q-9-.18-17.89-.17c-4,0-7.9,0-11.86.07l-.28,100.5q6.46-.1,12.94-.1Q1111.16,351.21,1120.16,351.41Zm-25.71-92.13c2.3,0,4.61,0,6.91,0q6.5,0,13,.09l.75,83.46q-6.48-.1-12.95-.1-4,0-7.94,0Z"/><path class="cls-24" d="M1215.49,257.9c-9.87-1.2-19.66-2.74-29.56-3.64L1175,354.42c10.28.9,20.54,2,30.79,3.24Zm-34.55,88.53,9.08-83.24c5,.54,10,1.22,14.9,1.87l4.78.64-8.06,82.92C1194.94,347.83,1188.1,347.1,1180.94,346.43ZM1578.26,382c-8.54-5.08-17-10.26-25.68-15l-50.95,86.38q13.53,7.43,26.81,15.41Zm-67.34,67.57,43-72.9c5.14,2.89,10.27,5.94,15.28,8.94l-42.11,73.34C1521.55,455.62,1516.19,452.52,1510.92,449.54Zm-18-112.5c-9-4.15-17.91-8.61-27-12.46L1424.29,416c9.49,4,18.94,8.13,28.31,12.49Zm-60,73.87,34.91-76.72c5,2.17,9.89,4.51,14.69,6.79l2,.95-33.88,76.85C1444.92,416.15,1439.05,413.55,1432.91,410.91ZM949.39,365.3l-22.15-98.75c-9.7,1.84-19.22,4.72-28.87,6.88l20.79,98.15C929.21,369.31,939.28,367.19,949.39,365.3ZM911,278.94c4.26-1.09,8.63-2.21,13-3.16l18.45,82.29c-6.35,1.25-13,2.63-20,4.19l-17.34-81.84Z"/><path class="cls-25" d="M1498,770.43c-78.66-76.38-179.89-128.77-290.38-149.48L1201,658.84a523.4,523.4,0,0,1,282.41,153.95C1488.35,798.83,1493.24,784.75,1498,770.43Z"/><g class="cls-27"><path class="cls-28" d="M756.57,492.18c.13,5.85.36,11.62.52,17.44,105.21-54.42,223-83.37,345.43-83.37,165.09,0,322.12,52.37,451.92,149q2-7.81,3.87-15.68c-131-97.54-289.41-150.37-455.79-150.37C980,409.23,862.14,438.05,756.57,492.18Z"/><path class="cls-28" d="M756.17,460.76c0,2.94.05,5.88.09,8.81,106.15-52,223.86-79.69,346.06-79.69,167.83,0,327.7,51.85,461.22,147.67.62-2.63,1.25-5.24,1.87-7.88-134.13-96.22-294.64-148.3-463.09-148.3C980.16,381.37,862.43,408.94,756.17,460.76Z"/></g><path class="cls-25" d="M771.24,720.92c1.65,15.05,3.39,30,5.33,44.8,89.34-72.76,203.92-116.33,328.83-116a527.25,527.25,0,0,1,84.47,7.11l6.65-37.9c-98.11-16.53-187.7-8.58-281.48,24.9A550.74,550.74,0,0,0,771.24,720.92Z"/><path class="cls-25" d="M788.23,843A450.68,450.68,0,0,1,1099.8,714.49l-.14-45.88A496.93,496.93,0,0,0,779.78,788.13c.4,2.82.8,5.65,1.21,8.45a495.31,495.31,0,0,1,313.72-119.39l.09,28.86A455.67,455.67,0,0,0,786.88,834.93C787.33,837.63,787.77,840.33,788.23,843Z"/></g></g></svg>